<?xml version="1.0" standalone="no"?>
<!DOCTYPE svg PUBLIC "-//W3C//DTD SVG 20010904//EN"
 "http://www.w3.org/TR/2001/REC-SVG-20010904/DTD/svg10.dtd">
<svg version="1.0" xmlns="http://www.w3.org/2000/svg"
 width="1280.000000pt" height="481.000000pt" viewBox="0 0 1280.000000 481.000000"
 preserveAspectRatio="xMidYMid meet">

<g transform="translate(0.000000,481.000000) scale(0.100000,-0.100000)"
fill="#000000" stroke="none">
<path d="M0 2400 l0 -2000 6398 2 6397 3 0 1995 0 1995 -6397 3 -6398 2 0
-2000z m4020 1280 l0 -360 63 46 c137 102 307 161 492 171 260 13 489 -73 670
-252 129 -128 211 -268 252 -431 25 -103 23 -352 -5 -455 -51 -189 -187 -382
-358 -506 -68 -49 -199 -110 -291 -134 -95 -26 -322 -31 -418 -10 -170 37
-323 125 -455 261 -146 150 -229 324 -250 521 -11 104 -14 1492 -3 1502 3 4
73 7 155 7 l148 0 0 -360z m4454 -126 c214 -55 377 -225 401 -417 l7 -57 -181
0 -180 0 -22 50 c-29 67 -74 106 -143 120 -98 20 -190 -13 -232 -86 -68 -116
5 -217 216 -297 358 -138 404 -162 496 -258 104 -108 134 -189 134 -354 0
-113 -14 -170 -62 -253 -62 -109 -160 -196 -291 -258 -94 -44 -188 -64 -312
-64 -132 0 -221 20 -330 74 -192 95 -317 257 -339 439 l-7 57 185 0 c180 0
186 -1 186 -20 0 -71 102 -186 191 -215 72 -24 198 -18 262 14 143 70 200 229
122 342 -51 73 -150 128 -387 218 -238 89 -359 178 -421 309 -30 63 -32 74
-32 183 0 113 1 116 38 191 63 129 196 235 352 279 80 23 265 25 349 3z
m-5629 -43 c209 -55 398 -193 525 -382 61 -91 88 -154 122 -279 19 -69 21
-114 25 -598 l5 -523 -152 3 -153 3 -1 107 c0 60 -4 108 -7 108 -3 0 -24 -14
-45 -31 -162 -129 -397 -200 -613 -184 -228 16 -413 100 -575 261 -177 177
-266 388 -266 635 0 255 87 466 268 647 126 126 269 205 442 243 113 25 309
20 425 -10z m4010 -1 c270 -72 529 -310 614 -568 48 -142 51 -187 51 -714 l0
-498 -150 0 -150 0 0 115 0 114 -67 -51 c-84 -64 -206 -122 -315 -150 -116
-30 -338 -30 -450 0 -162 44 -316 137 -430 261 -170 183 -239 361 -239 616 0
259 71 439 243 621 139 146 292 232 483 270 100 20 306 12 410 -16z m3208 19
c205 -31 366 -116 515 -273 118 -124 190 -256 226 -414 20 -90 29 -231 19
-297 l-8 -50 -735 -5 c-846 -6 -756 10 -694 -118 65 -134 201 -255 342 -304
58 -20 86 -23 202 -22 122 0 142 3 203 27 69 27 133 66 194 120 35 31 38 31
159 35 125 4 234 -3 234 -17 0 -18 -88 -139 -147 -202 -112 -118 -253 -201
-430 -251 -108 -31 -331 -31 -445 0 -285 77 -523 293 -625 566 -65 174 -68
425 -7 605 85 254 325 492 578 571 117 37 288 49 419 29z m956 -1532 c107 -54
147 -207 80 -309 -93 -139 -291 -135 -376 9 -90 153 41 349 217 326 19 -3 55
-14 79 -26z m-3359 -782 c0 -257 -1 -265 -20 -265 -13 0 -22 9 -26 26 l-6 25
-23 -21 c-32 -30 -87 -43 -133 -31 -78 21 -115 85 -114 194 1 81 23 131 72
165 46 31 115 30 164 -3 l36 -24 0 99 c0 100 0 100 25 100 l25 0 0 -265z
m-3015 210 c0 -25 -4 -30 -25 -30 -16 0 -26 6 -28 18 -6 30 6 49 30 45 18 -2
23 -9 23 -33z m-2598 -202 c117 -296 111 -273 75 -273 -27 0 -31 5 -59 78
l-30 77 -101 3 -100 3 -30 -78 c-27 -73 -31 -78 -61 -81 l-31 -3 19 48 c144
363 174 439 178 446 2 4 15 7 27 7 21 0 32 -22 113 -227z m3989 216 c28 -7 54
-23 70 -42 23 -27 25 -38 21 -81 -3 -38 -11 -55 -31 -73 -15 -13 -35 -23 -44
-23 -9 0 4 -10 28 -22 107 -54 84 -204 -36 -237 -21 -6 -85 -11 -141 -11
l-103 0 0 250 0 250 96 0 c52 0 115 -5 140 -11z m2148 1 c22 -5 53 -22 70 -39
28 -28 31 -37 31 -92 0 -57 -3 -63 -36 -94 -20 -18 -41 -34 -48 -36 -9 -3 9
-40 53 -112 36 -59 66 -109 66 -112 0 -3 -15 -5 -33 -5 -31 0 -36 5 -92 105
l-60 104 -52 1 -53 0 0 -105 0 -105 -30 0 -30 0 0 250 0 250 88 0 c48 0 105
-5 126 -10z m-5482 -72 l3 -43 53 0 c47 0 52 -2 52 -22 0 -21 -5 -23 -55 -23
l-55 0 0 -115 c0 -66 5 -125 12 -140 13 -28 45 -41 77 -30 17 5 21 2 21 -18 0
-30 -39 -41 -94 -26 -58 16 -65 37 -68 192 l-3 137 -27 0 c-38 0 -36 24 2 40
17 7 30 18 30 26 0 26 20 64 34 64 10 0 16 -13 18 -42z m1700 0 l3 -43 53 -3
c44 -3 52 -6 52 -23 0 -16 -7 -19 -55 -19 l-55 0 0 -115 c0 -153 15 -182 90
-173 19 2 25 -2 25 -16 0 -44 -118 -39 -150 7 -12 17 -15 51 -15 159 l0 138
-30 0 c-39 0 -40 24 -1 39 20 9 32 24 40 52 16 53 39 51 43 -3z m-1278 -61
c97 -55 115 -230 32 -313 -81 -81 -217 -60 -266 42 -29 60 -26 178 6 221 55
74 149 95 228 50z m445 -11 c22 -21 30 -24 34 -13 3 8 22 22 42 32 54 25 128
17 163 -19 27 -26 27 -29 30 -186 l4 -160 -31 0 -31 0 0 145 c0 132 -2 147
-20 165 -24 24 -86 27 -117 5 -32 -22 -43 -75 -43 -203 l0 -113 -27 3 -28 3
-5 146 c-6 166 -11 179 -70 179 -87 0 -102 -29 -108 -202 -4 -127 -5 -128 -28
-128 l-24 0 0 185 0 185 25 0 c18 0 25 -5 25 -20 0 -18 2 -18 38 6 51 35 129
31 171 -10z m608 14 c43 -26 53 -67 53 -227 l0 -133 -25 0 c-18 0 -25 5 -25
19 0 29 -15 33 -35 11 -44 -49 -154 -45 -194 7 -23 28 -28 91 -11 124 17 31
71 52 150 58 l75 6 3 32 c6 63 -62 92 -148 62 -26 -9 -34 -9 -41 2 -13 21 -6
31 32 45 53 19 129 17 166 -6z m823 -1 c99 -56 119 -232 36 -315 -82 -82 -217
-60 -268 44 -47 97 -19 225 59 270 50 29 123 29 173 1z m440 3 c49 -24 59 -61
59 -224 l1 -138 -30 0 -30 0 0 139 c0 125 -2 141 -21 165 -24 31 -81 36 -129
11 -39 -20 -50 -64 -50 -202 l0 -113 -30 0 -30 0 0 185 0 185 26 0 c17 0 28
-6 31 -19 5 -18 7 -18 40 5 44 29 112 32 163 6z m1048 -15 c27 -27 27 -29 30
-187 l4 -160 -26 0 c-21 0 -26 5 -26 25 0 30 -10 32 -32 6 -25 -30 -90 -44
-137 -31 -52 14 -81 51 -81 104 1 74 46 107 160 115 73 6 75 7 78 34 2 16 -4
39 -13 53 -12 19 -24 24 -59 24 -24 0 -57 -5 -75 -11 -36 -13 -38 -12 -43 15
-5 27 53 46 130 43 53 -3 67 -7 90 -30z m341 22 c31 -11 37 -23 23 -47 -7 -10
-15 -10 -36 -2 -15 5 -49 10 -76 10 -39 0 -52 -4 -64 -22 -23 -33 -2 -58 79
-91 82 -33 94 -42 112 -84 18 -44 -2 -95 -49 -120 -39 -21 -150 -24 -185 -4
-29 15 -34 68 -5 56 85 -36 176 -26 188 21 9 35 -16 59 -89 86 -101 39 -138
90 -106 149 27 52 129 75 208 48z m362 -12 c43 -28 69 -80 69 -134 l0 -43
-125 0 -125 0 0 -25 c0 -35 25 -82 51 -96 26 -14 116 -13 153 0 21 9 28 8 32
-4 11 -29 -5 -43 -61 -55 -98 -20 -180 11 -217 83 -28 55 -23 182 8 224 55 74
147 96 215 50z m1419 8 c44 -23 71 -68 77 -130 l6 -55 -126 0 c-69 0 -128 -3
-130 -8 -7 -10 19 -82 36 -100 28 -27 97 -31 187 -10 10 2 15 -5 15 -22 0 -22
-7 -27 -55 -39 -97 -23 -184 9 -222 82 -28 55 -23 182 8 224 51 68 137 93 204
58z m372 5 c35 -10 37 -12 26 -36 -8 -17 -16 -23 -27 -18 -31 13 -118 16 -140
5 -28 -16 -28 -56 2 -75 12 -8 47 -24 78 -35 73 -28 102 -58 102 -110 0 -71
-51 -105 -153 -104 -78 0 -110 14 -110 48 0 14 1 25 3 25 1 0 20 -7 42 -15 80
-29 165 -9 165 40 0 29 -32 56 -97 80 -72 27 -101 51 -109 89 -16 89 91 141
218 106z m386 -16 c88 -65 97 -242 15 -314 -88 -78 -225 -49 -269 56 -17 40
-18 141 -3 181 14 37 47 72 84 89 42 20 138 13 173 -12z m812 1 c0 -22 -4 -25
-39 -25 -46 0 -88 -29 -107 -76 -9 -22 -14 -73 -14 -144 l0 -111 -27 3 -28 3
-3 183 -2 182 25 0 c21 0 27 -6 32 -31 5 -26 8 -28 15 -14 16 27 71 55 111 55
33 0 37 -3 37 -25z m294 16 c18 -8 23 -15 19 -31 -5 -19 -10 -20 -68 -14 -58
6 -64 5 -94 -22 -28 -25 -33 -38 -38 -90 -12 -134 42 -186 166 -159 28 6 31 4
31 -19 0 -30 -29 -41 -102 -39 -97 2 -158 74 -158 185 0 91 34 157 95 184 35
16 113 18 149 5z m320 -5 c42 -18 75 -71 83 -135 l6 -51 -132 0 c-145 0 -144
1 -117 -65 20 -48 55 -67 119 -66 30 0 66 5 81 11 26 9 27 9 24 -17 -3 -24
-10 -30 -53 -41 -91 -22 -175 5 -215 70 -57 95 -22 256 64 294 40 17 98 17
140 0z m-8524 -134 c0 -106 3 -142 15 -159 33 -47 132 -36 160 17 11 21 15 63
15 155 l0 125 30 0 30 0 0 -185 0 -185 -25 0 c-20 0 -25 5 -25 27 l0 26 -22
-20 c-66 -61 -202 -44 -227 28 -6 18 -11 94 -11 170 l0 139 30 0 30 0 0 -138z
m2380 -47 l0 -185 -30 0 -30 0 0 185 0 185 30 0 30 0 0 -185z m4940 55 c0
-147 8 -175 57 -190 43 -15 85 -5 114 26 22 24 24 35 27 160 l4 134 29 0 29 0
0 -185 0 -185 -24 0 c-17 0 -26 7 -30 25 -6 24 -7 24 -26 5 -45 -45 -159 -46
-204 0 -19 18 -21 35 -26 170 -3 83 -3 155 -2 160 2 6 15 10 28 10 l24 0 0
-130z"/>
<path d="M4429 3207 c-97 -33 -173 -83 -248 -163 -117 -125 -161 -237 -161
-410 0 -178 48 -292 175 -420 94 -95 185 -145 310 -170 196 -40 375 17 526
166 92 90 132 155 165 266 24 80 24 238 0 319 -61 205 -215 359 -415 419 -85
25 -268 22 -352 -7z"/>
<path d="M2514 3231 c-237 -38 -439 -233 -489 -472 -20 -95 -19 -171 4 -261
57 -223 222 -389 441 -444 80 -20 261 -14 330 11 131 48 241 133 313 243 69
104 89 168 94 297 9 201 -35 314 -177 455 -89 90 -169 138 -261 159 -66 15
-197 21 -255 12z"/>
<path d="M6507 3229 c-32 -5 -96 -26 -143 -49 -70 -32 -101 -55 -163 -117
-122 -123 -170 -227 -178 -388 -7 -128 7 -200 58 -303 56 -115 156 -215 271
-271 95 -47 157 -61 272 -61 167 0 291 52 411 173 152 153 205 312 176 522
-35 247 -255 464 -501 494 -95 12 -120 12 -203 0z"/>
<path d="M9790 3225 c-137 -31 -296 -140 -369 -254 -25 -38 -81 -162 -81 -178
0 -2 261 -3 580 -3 536 0 580 1 580 17 0 9 -18 54 -40 99 -67 138 -199 253
-347 303 -83 28 -236 36 -323 16z"/>
<path d="M10819 1987 c-66 -35 -102 -93 -107 -170 -4 -77 24 -138 86 -181 159
-113 381 62 307 242 -48 115 -179 165 -286 109z m217 -87 c8 0 14 -4 14 -9 0
-6 -19 -11 -42 -13 -36 -2 -44 -7 -46 -26 -3 -18 5 -26 42 -42 54 -23 71 -60
40 -90 -19 -19 -38 -23 -86 -21 -50 2 -32 26 19 26 42 0 48 3 51 22 3 17 -6
27 -36 42 -54 28 -68 46 -56 79 9 26 45 44 72 36 8 -2 20 -4 28 -4z m-126 -10
c0 -5 -13 -10 -30 -10 l-30 0 0 -90 c0 -73 -3 -90 -15 -90 -12 0 -15 17 -15
90 l0 90 -30 0 c-16 0 -30 5 -30 10 0 6 32 10 75 10 43 0 75 -4 75 -10z"/>
<path d="M7447 1269 c-30 -18 -47 -65 -47 -134 0 -78 17 -117 58 -134 36 -15
95 -6 117 19 44 49 41 186 -6 232 -29 30 -86 38 -122 17z"/>
<path d="M1924 1354 c-4 -10 -20 -53 -35 -94 -16 -41 -29 -81 -29 -87 0 -9 22
-13 76 -13 57 0 75 3 71 13 -2 6 -19 53 -37 102 -38 104 -37 104 -46 79z"/>
<path d="M5860 1320 l0 -80 79 0 c93 0 131 21 131 71 0 65 -41 89 -152 89
l-58 0 0 -80z"/>
<path d="M5860 1095 l0 -95 69 0 c93 0 130 14 148 57 34 82 -25 133 -152 133
l-65 0 0 -95z"/>
<path d="M8030 1306 l0 -96 63 0 c34 0 73 6 87 13 56 28 64 121 14 153 -14 10
-55 19 -94 22 l-70 5 0 -97z"/>
<path d="M2978 1269 c-60 -34 -69 -189 -16 -246 42 -44 130 -37 163 13 39 60
27 185 -22 223 -28 23 -95 28 -125 10z"/>
<path d="M4040 1123 c-55 -20 -69 -90 -25 -119 58 -38 142 8 152 84 l6 42 -59
-1 c-33 0 -66 -3 -74 -6z"/>
<path d="M4847 1260 c-52 -41 -55 -184 -5 -237 50 -54 144 -33 172 38 30 75
14 168 -35 203 -33 23 -100 21 -132 -4z"/>
<path d="M6324 1116 c-48 -21 -59 -71 -24 -106 24 -24 60 -26 105 -5 36 18 55
51 55 95 0 29 -1 30 -52 30 -29 -1 -67 -7 -84 -14z"/>
<path d="M7039 1251 c-17 -17 -29 -40 -29 -55 l0 -26 95 0 c89 0 95 1 95 20 0
29 -26 76 -45 84 -40 15 -87 6 -116 -23z"/>
<path d="M8469 1251 c-17 -17 -29 -40 -29 -55 l0 -26 95 0 c102 0 105 2 86 53
-25 65 -100 79 -152 28z"/>
<path d="M9204 1265 c-34 -23 -47 -68 -42 -144 3 -57 8 -75 27 -95 51 -54 149
-38 176 28 30 72 12 176 -36 210 -29 20 -98 21 -125 1z"/>
<path d="M10668 1266 c-10 -7 -25 -30 -33 -50 -19 -46 -16 -48 96 -44 83 3 84
3 81 28 -5 47 -35 75 -83 77 -25 2 -51 -3 -61 -11z"/>
</g>
</svg>
