<svg version="1.1" id="Layer_1" xmlns="http://www.w3.org/2000/svg" xmlns:xlink="http://www.w3.org/1999/xlink" x="0px" y="0px"
	 width="100%" viewBox="0 0 1280 481" enable-background="new 0 0 1280 481" xml:space="preserve">
<path fill="#FEFEFE" opacity="1.000000" stroke="none" 
	d="
M1281.000000,42.999996 
	C1281.000000,175.689987 1281.000000,308.379974 1280.772949,441.357910 
	C1280.354004,441.639893 1280.162109,441.634003 1279.721924,441.437103 
	C1278.317017,441.437195 1277.160767,441.628326 1275.563721,441.892548 
	C1272.747925,441.916260 1270.372681,441.866882 1267.844116,441.617004 
	C1267.128052,441.550568 1266.565186,441.684601 1265.546387,441.894012 
	C1264.590576,441.974976 1264.090698,441.985474 1263.590942,441.985474 
	C844.556091,441.986969 425.521210,441.987885 6.486353,441.980988 
	C4.991634,441.980988 3.496917,441.867584 1.889870,441.611938 
	C1.575653,441.170929 1.316473,441.032043 1.000000,441.000000 
	C1.000000,308.643341 1.000000,176.286682 1.320097,43.163754 
	C5.137332,42.343353 8.634470,42.241879 12.131610,42.241821 
	C429.395142,42.234688 846.658691,42.234753 1263.922241,42.238804 
	C1268.920166,42.238853 1273.918091,42.295399 1279.117920,42.570892 
	C1279.879883,42.877476 1280.439941,42.938736 1281.000000,42.999996 
M1075.257446,287.655334 
	C1074.986938,288.116302 1074.716431,288.577301 1073.823364,289.203552 
	C1072.638916,291.969666 1071.454468,294.735748 1070.285522,298.327118 
	C1069.823608,306.300995 1070.601196,309.179840 1074.004272,311.996307 
	C1074.004272,311.996307 1073.961670,312.004120 1073.354492,312.689301 
	C1074.755493,313.798981 1076.156494,314.908661 1077.628296,316.219849 
	C1077.628296,316.219849 1077.978516,316.446045 1077.268799,317.016907 
	C1080.511475,319.047394 1083.754150,321.077881 1087.488892,323.595154 
	C1088.161499,323.655151 1088.834106,323.715179 1090.245605,323.681519 
	C1092.185547,323.444244 1094.125366,323.206940 1095.993896,322.981232 
	C1095.993896,322.981232 1095.957275,323.043427 1096.695312,322.787720 
	C1102.544434,321.988617 1107.267822,319.478241 1109.995728,313.999420 
	C1109.995728,313.999420 1110.013428,314.045288 1110.705078,313.865479 
	C1111.720215,310.671844 1112.735352,307.478210 1113.992188,303.999237 
	C1113.992188,303.999237 1114.183838,303.678162 1114.360596,303.139771 
	C1114.261230,301.825989 1114.161865,300.512207 1114.063110,298.402130 
	C1113.070557,293.706055 1113.353638,288.340363 1107.062378,285.827545 
	C1106.380615,285.206116 1105.698730,284.584717 1105.002075,284.004456 
	C1105.002075,284.004456 1105.041992,283.986969 1104.978394,283.280609 
	C1102.643311,282.096954 1100.308350,280.913300 1097.520508,279.348206 
	C1097.131836,279.310211 1096.743042,279.272186 1095.559937,279.428711 
	C1087.837158,278.953156 1084.806641,279.747467 1082.004639,283.005035 
	C1082.004639,283.005035 1081.998901,282.961212 1081.422485,282.319092 
	C1080.602051,283.210907 1079.781494,284.102753 1079.005127,285.006927 
	C1079.005127,285.006927 1079.005859,284.961060 1078.458618,284.418030 
	C1077.954468,284.942932 1077.450195,285.467834 1077.002319,286.003021 
	C1077.002319,286.003021 1076.993652,285.946472 1076.267578,286.189484 
	C1076.165649,286.797913 1076.063721,287.406342 1076.016602,288.014374 
	C1076.016602,288.014374 1076.018311,287.959473 1075.257446,287.655334 
M1012.505859,275.663879 
	C1008.890442,276.165466 1005.275024,276.667053 1000.660828,277.056366 
	C996.798035,277.225555 992.935181,277.394775 988.390686,277.684387 
	C987.260925,277.464996 986.131165,277.245605 984.839966,276.679047 
	C984.560242,276.779755 984.280579,276.880463 983.200073,277.111572 
	C961.821899,273.841064 939.636658,253.248489 937.222473,233.778473 
	C961.750000,233.778473 986.189331,233.778458 1010.628601,233.778458 
	C1035.026978,233.778458 1059.425415,233.778473 1084.238647,233.778473 
	C1084.238647,223.549194 1085.222412,214.484406 1084.077881,205.696854 
	C1076.995117,151.319275 1020.557495,111.893677 962.256592,133.786438 
	C922.430237,148.741699 896.748230,188.405106 905.983643,237.799469 
	C912.237488,271.246918 942.503479,300.633881 975.714722,307.013489 
	C997.837097,311.262939 1018.705200,308.021881 1039.194214,297.816345 
	C1039.459351,297.580414 1039.724609,297.344513 1040.232788,296.821350 
	C1040.232788,296.821350 1040.607544,296.857422 1041.191040,296.767822 
	C1041.452393,296.487152 1041.713745,296.206451 1042.271851,295.321167 
	C1044.565674,293.882690 1046.859619,292.444214 1049.757690,290.942169 
	C1050.135620,290.527008 1050.513428,290.111847 1051.220703,289.135437 
	C1053.930786,286.762207 1056.640747,284.388977 1059.900879,281.927704 
	C1060.288574,281.356201 1060.676392,280.784698 1061.362061,279.603821 
	C1063.559082,277.063843 1065.756104,274.523865 1068.461182,271.668945 
	C1068.591064,271.302399 1068.720947,270.935852 1069.051758,269.935913 
	C1070.996826,266.773621 1072.941772,263.611328 1075.427002,259.570892 
	C1062.750732,259.570892 1051.199829,259.501465 1039.652222,259.670990 
	C1038.404297,259.689301 1037.139893,261.039520 1035.946167,261.863159 
	C1031.471924,264.949951 1027.023682,268.074585 1021.944275,271.211853 
	C1021.630310,271.465973 1021.316406,271.720093 1020.537415,272.443481 
	C1018.919983,273.040955 1017.302551,273.638458 1014.923645,274.125122 
	C1014.296753,274.462067 1013.669922,274.799011 1012.505859,275.663879 
M524.386780,284.887634 
	C558.051086,255.325882 561.713684,205.285217 540.770935,171.438110 
	C529.545532,153.295944 514.028564,139.811356 493.721375,133.023376 
	C461.040283,122.099251 430.939270,128.312759 402.977783,149.961792 
	C402.977783,125.116318 402.977783,101.559471 402.977783,78.117966 
	C392.694458,78.117966 382.921326,78.117966 372.705353,78.117966 
	C372.595428,80.588593 372.411163,82.720375 372.418976,84.851456 
	C372.587616,130.831482 372.793182,176.811371 372.953278,222.791428 
	C372.995819,235.006287 375.822906,246.578339 381.309357,257.405823 
	C411.746857,317.474152 484.276459,322.869171 524.386780,284.887634 
M225.335571,301.249329 
	C260.318542,315.497498 292.523834,310.015503 322.553406,286.678802 
	C322.553406,294.654114 322.553406,301.720886 322.553406,308.699280 
	C332.869324,308.699280 342.791687,308.699280 353.030975,308.699280 
	C353.030975,307.429291 353.032257,306.456146 353.030823,305.483002 
	C352.990234,278.319336 353.024933,251.155167 352.856628,223.992279 
	C352.813354,217.006241 352.771088,209.918457 351.638733,203.057236 
	C343.637543,154.575851 297.137573,121.232750 248.605118,128.907928 
	C192.784393,137.735703 158.441315,193.652969 176.286377,247.115402 
	C184.566544,271.922150 201.323868,289.479248 225.335571,301.249329 
M689.058105,131.391510 
	C648.652771,120.824486 611.326416,133.897934 587.013550,169.614426 
	C566.597473,199.606277 567.752930,246.441788 593.708130,276.234802 
	C606.312500,290.702881 621.302429,301.391998 639.996399,305.982605 
	C670.714417,313.525940 698.530090,306.901123 723.580933,286.519165 
	C723.580933,294.557281 723.580933,301.611237 723.580933,308.748596 
	C733.828796,308.748596 743.746582,308.748596 753.706421,308.748596 
	C753.858276,308.052185 754.051392,307.584808 754.048950,307.118500 
	C753.881226,274.961456 754.330933,242.785049 753.345337,210.652710 
	C752.266663,175.488113 723.860413,140.991516 689.058105,131.391510 
M886.055664,220.432983 
	C879.960815,216.431747 874.187683,211.772614 867.689941,208.595291 
	C859.513672,204.597153 850.688477,201.947144 842.248169,198.461548 
	C834.416443,195.227310 826.466919,192.133316 819.030457,188.122375 
	C808.878418,182.646744 807.438599,173.157913 811.655029,166.296356 
	C816.798279,157.926605 824.970581,155.010193 834.490662,156.213318 
	C843.294373,157.325882 849.630127,161.746628 852.322937,170.673904 
	C852.701294,171.928192 854.265442,173.723099 855.307800,173.741638 
	C867.427856,173.957230 879.553223,173.879532 892.082214,173.879532 
	C891.710632,162.266693 887.876892,152.590408 880.261780,144.602646 
	C858.135864,121.394020 819.383850,117.542488 792.669861,135.238678 
	C762.277710,155.371460 762.636719,197.376465 797.168640,214.547012 
	C804.141235,218.014023 811.558838,220.573868 818.666199,223.784683 
	C830.303711,229.042068 842.381775,233.603806 853.302185,240.094223 
	C865.504944,247.346863 866.874634,261.720276 857.614990,272.400482 
	C849.284851,282.008575 838.179688,285.386566 826.103088,283.615692 
	C813.152161,281.716614 802.960571,275.181976 799.387756,261.489105 
	C798.579102,258.389893 797.048950,257.658905 794.113037,257.774902 
	C785.124512,258.129974 776.125793,258.215973 767.132996,258.475800 
	C764.866150,258.541321 762.606750,258.865265 760.048950,259.097198 
	C760.691589,272.522644 765.897217,283.317902 774.425171,292.753113 
	C800.965210,322.116791 854.950684,323.646149 884.449402,296.314240 
	C906.721191,275.678467 907.768433,239.561386 886.055664,220.432983 
M611.235657,341.377228 
	C601.978821,334.759460 591.520691,337.827942 581.370178,336.884247 
	C581.370178,353.947845 581.370178,370.210297 581.370178,387.415833 
	C589.519531,386.934387 597.505615,387.043427 605.287354,385.835815 
	C612.733215,384.680298 616.455200,378.465057 615.766785,371.180359 
	C615.198364,365.165314 610.869385,362.729767 605.841064,360.635803 
	C614.616455,355.694153 616.278809,350.109344 611.235657,341.377228 
M384.982941,378.441956 
	C384.976410,372.778381 385.124512,367.109436 384.928314,361.452454 
	C384.607330,352.197815 378.723755,347.216705 369.750519,349.134613 
	C366.285797,349.875153 363.188446,352.334381 360.853760,353.533081 
	C356.959045,351.953491 353.195435,349.282532 349.367157,349.186432 
	C345.287567,349.084076 341.146881,351.416992 337.804810,352.448456 
	C336.369293,351.423828 334.705505,350.236267 331.879364,348.219025 
	C331.879364,356.244904 331.879364,362.372437 331.879364,368.499969 
	C331.879364,374.612457 331.879364,380.724945 331.879364,386.835419 
	C333.964935,386.835419 335.439362,386.835419 337.359131,386.835419 
	C337.359131,384.065521 337.295105,381.426056 337.372223,378.790680 
	C337.542511,372.972931 337.372742,367.104126 338.115784,361.356232 
	C338.811920,355.970856 342.594482,353.514709 348.082245,353.760864 
	C352.911072,353.977539 354.881104,356.120056 355.437531,361.978943 
	C355.625946,363.962860 355.571991,365.972656 355.576843,367.970703 
	C355.592010,374.232849 355.582428,380.495056 355.582428,387.059448 
	C357.799530,386.934357 359.371368,386.845703 361.613251,386.719238 
	C361.613251,378.248596 361.196991,370.088043 361.751465,361.993988 
	C362.158905,356.045990 366.178955,353.384644 372.115997,353.773010 
	C377.203491,354.105743 379.071198,356.563263 379.111511,363.207581 
	C379.158752,370.996643 379.122559,378.786224 379.122559,386.669739 
	C381.318390,386.669739 383.019836,386.669739 384.982971,386.669739 
	C384.982971,384.045959 384.982971,381.732178 384.982941,378.441956 
M798.068604,360.500000 
	C798.068604,369.270294 798.068604,378.040558 798.068604,387.059509 
	C800.473328,386.946259 802.207947,386.864594 804.250488,386.768402 
	C804.250488,379.680847 804.250488,373.069519 804.250488,366.556824 
	C810.869446,364.885040 815.740540,365.936523 818.366455,372.791260 
	C819.657593,376.161987 822.263123,379.011261 823.735901,382.334900 
	C825.592346,386.524414 828.325439,388.036041 833.057495,386.501801 
	C828.674927,379.198792 824.336121,371.968628 819.933350,364.631958 
	C821.436157,363.843750 822.828186,363.293304 824.020081,362.457367 
	C829.120667,358.880096 830.424683,353.838654 829.462585,347.944092 
	C828.615723,342.755707 825.538086,339.129608 820.570190,338.369934 
	C813.278442,337.254852 805.838867,337.106781 798.709961,336.565521 
	C798.301270,337.899200 798.128357,338.202301 798.127014,338.506195 
	C798.096252,345.504059 798.084167,352.502075 798.068604,360.500000 
M740.905640,384.731903 
	C748.617920,389.141266 754.426147,388.510864 761.809204,382.399353 
	C762.217407,383.856079 762.613098,385.268524 763.043152,386.803406 
	C764.393188,386.803406 765.663574,386.803406 766.966614,386.803406 
	C766.966614,369.130127 766.966614,351.641876 766.966614,333.835388 
	C765.028259,333.981049 763.478760,334.097473 761.606628,334.238129 
	C761.606628,340.983612 761.606628,347.309540 761.606628,353.927887 
	C752.923462,346.445221 742.369812,347.440552 737.332031,355.873444 
	C732.595093,363.802795 734.034790,377.399261 740.905640,384.731903 
M173.769241,383.051453 
	C173.331940,384.226135 172.894638,385.400818 172.460876,386.565948 
	C176.838181,388.093231 178.850616,386.387451 179.878082,382.401611 
	C180.660782,379.365234 181.839920,376.377380 183.270538,373.587280 
	C183.867691,372.422638 185.541870,371.147095 186.781342,371.088654 
	C192.419891,370.822693 198.078018,370.972076 203.952454,370.972076 
	C206.159622,376.404907 208.318649,381.719177 210.497513,387.082367 
	C212.555817,386.948242 214.254303,386.837555 216.273010,386.706024 
	C210.079407,370.911377 204.147736,355.608002 197.999435,340.392181 
	C197.416046,338.948425 195.403473,337.074982 194.183441,337.164246 
	C192.822311,337.263885 191.029465,339.144348 190.421097,340.651886 
	C184.832947,354.499542 179.461197,368.434540 173.769241,383.051453 
M409.470673,364.945923 
	C407.655548,365.164612 405.806580,365.231628 404.031158,365.628174 
	C396.229645,367.370697 392.791046,371.980011 393.910889,379.028412 
	C394.841644,384.886749 400.370361,388.568268 407.656555,387.315094 
	C411.336212,386.682251 414.764862,384.589905 418.526154,383.068848 
	C418.883820,385.538818 419.314209,388.689056 423.389893,386.260010 
	C423.389893,377.086792 423.504730,367.933594 423.343750,358.785278 
	C423.257202,353.866425 420.590210,350.197174 415.692474,349.761627 
	C411.044922,349.348328 406.256165,350.110413 401.569092,350.680908 
	C397.625153,351.160889 397.577393,353.310242 399.750336,356.031555 
	C414.922943,352.014526 419.770538,354.337158 417.264038,364.586578 
	C415.012573,364.694977 412.691528,364.806702 409.470673,364.945923 
M652.822571,385.009369 
	C652.823914,377.687347 652.600159,370.356842 652.875732,363.045166 
	C653.370239,349.925659 644.985291,347.918518 635.312866,349.248749 
	C633.689880,349.471985 632.156372,350.280426 630.544739,350.664215 
	C626.588501,351.606445 626.919373,353.523560 628.962585,356.046509 
	C644.001404,351.785614 648.220764,353.783752 646.582947,364.573700 
	C644.519165,364.679413 642.348206,364.598633 640.245728,364.939941 
	C636.350281,365.572266 632.292847,365.936340 628.673096,367.355988 
	C623.970581,369.200317 622.058655,373.667603 622.991028,378.873077 
	C623.851501,383.676788 626.963928,386.329651 631.678650,387.253845 
	C637.632446,388.420929 642.703186,386.616028 647.014832,382.281555 
	C648.875061,387.535156 648.875061,387.535156 652.822571,385.009369 
M1077.235107,387.530792 
	C1079.348877,387.139832 1081.461182,386.741241 1083.576660,386.359650 
	C1087.306274,385.686798 1087.946045,383.556030 1086.557251,380.344696 
	C1070.960815,385.026428 1062.182251,380.764343 1063.804810,368.934540 
	C1071.987671,368.934540 1080.235352,368.934540 1088.971436,368.934540 
	C1088.657349,365.842163 1088.557373,363.210968 1088.096313,360.644653 
	C1086.977905,354.418335 1083.044434,350.470093 1077.060791,349.170715 
	C1071.001953,347.854980 1065.227295,349.328522 1061.424438,354.513977 
	C1056.066040,361.820343 1055.720459,370.131042 1059.161133,378.211060 
	C1062.269897,385.511322 1068.827026,387.779327 1077.235107,387.530792 
M870.000244,363.814697 
	C869.337891,356.511047 866.039795,350.970917 858.632935,349.234497 
	C852.419312,347.777802 846.744690,349.434540 842.606567,354.714905 
	C837.485046,361.250122 837.256653,374.427338 842.096069,381.040466 
	C846.579041,387.166443 856.525635,389.220947 865.327209,386.272522 
	C868.817444,385.103363 869.114380,383.353577 868.001587,380.448181 
	C851.919800,384.846588 843.724182,380.838745 845.082825,369.021454 
	C853.276062,369.021454 861.520813,369.021454 870.027039,369.021454 
	C870.027039,367.316925 870.027039,366.018402 870.000244,363.814697 
M485.592468,386.071960 
	C495.093506,389.575958 504.322540,386.833893 507.479279,378.415863 
	C509.254578,373.681580 509.643127,367.980774 509.056793,362.900024 
	C507.822815,352.207397 497.474915,346.380554 487.189362,349.627533 
	C479.643036,352.009766 476.407593,357.573334 475.716583,364.886932 
	C474.905853,373.467773 476.485046,381.184265 485.592468,386.071960 
M725.630981,383.387207 
	C725.530762,382.437927 725.430542,381.488647 725.327087,380.509064 
	C708.156006,384.354004 701.467590,381.167603 701.967346,369.128906 
	C710.186340,369.128906 718.435852,369.128906 726.984253,369.128906 
	C726.984253,366.922791 727.099548,365.127838 726.964355,363.351929 
	C726.363831,355.460724 721.289551,349.743622 714.256409,348.931427 
	C706.202148,348.001312 699.040161,352.240570 696.972046,359.964783 
	C695.922729,363.883972 695.823792,368.194427 696.048706,372.286560 
	C696.404053,378.750671 699.590332,383.801910 705.861267,386.022675 
	C712.600098,388.409088 719.402649,388.886841 725.630981,383.387207 
M290.112976,379.199066 
	C292.333862,381.370789 294.237457,384.086731 296.839874,385.604095 
	C302.771301,389.062408 311.135803,387.936493 315.977966,383.643158 
	C321.617493,378.642822 323.590729,368.542908 320.597961,359.995911 
	C317.924377,352.360443 311.738556,348.424316 303.155670,348.897034 
	C295.718475,349.306671 289.133423,354.378937 288.347473,361.933411 
	C287.784149,367.348022 289.253326,372.974060 290.112976,379.199066 
M939.091492,383.633118 
	C945.905151,376.581940 946.460205,368.252808 943.442139,359.564545 
	C940.462280,350.986237 931.494629,346.888214 922.836182,349.448303 
	C915.777710,351.535248 911.994263,356.480682 911.065125,363.414825 
	C909.964966,371.625854 910.683411,379.717743 918.429016,384.767059 
	C925.032410,389.071747 931.964478,388.585938 939.091492,383.633118 
M521.722595,387.002472 
	C524.222717,387.414856 525.181519,386.574402 525.162292,383.838898 
	C525.113281,376.866028 524.870544,369.821655 525.735291,362.935242 
	C526.637756,355.748260 530.924255,353.068268 538.002625,353.846710 
	C543.123840,354.409912 544.947632,357.178040 544.967041,364.514893 
	C544.986755,371.953522 544.971436,379.392181 544.971436,386.801147 
	C547.184265,386.801147 548.797241,386.801147 550.677368,386.801147 
	C550.677368,377.663879 551.147522,368.692688 550.531677,359.796661 
	C550.019653,352.400116 545.540771,348.564667 538.165833,349.043945 
	C533.687927,349.334991 529.326416,351.417206 524.890808,352.701080 
	C525.039124,349.835754 523.144653,348.822266 519.406799,350.219513 
	C519.406799,361.665588 519.374268,372.963531 519.467957,384.260406 
	C519.475464,385.173950 520.348816,386.080322 521.722595,387.002472 
M954.768127,376.593109 
	C953.984985,386.745453 969.159424,392.111877 979.182800,383.390533 
	C980.983765,384.880890 982.718079,386.316040 984.452332,387.751190 
	C984.804321,387.370789 985.156311,386.990417 985.508301,386.610016 
	C985.508301,374.410004 985.508301,362.209961 985.508301,349.865479 
	C983.591675,349.865479 981.995239,349.865479 979.857788,349.865479 
	C979.857788,357.360687 980.100403,364.645599 979.790894,371.906982 
	C979.468079,379.479309 975.489014,383.016296 968.437073,382.722443 
	C962.352234,382.468842 960.173340,379.588379 960.149048,371.677216 
	C960.126770,364.427673 960.144409,357.178040 960.144409,349.585205 
	C957.935547,349.725555 956.372192,349.824860 954.700195,349.931091 
	C954.700195,358.806183 954.700195,367.269989 954.768127,376.593109 
M242.332520,381.374084 
	C232.076035,384.922943 227.801788,382.014648 227.745483,371.395905 
	C227.707855,364.299347 227.738312,357.202423 227.738312,349.942932 
	C225.494858,349.942932 223.768005,349.942932 221.912521,349.942932 
	C221.912521,358.889923 221.707550,367.534637 221.978760,376.164398 
	C222.187698,382.813293 225.905121,386.417969 232.453354,387.364899 
	C238.235794,388.200989 243.230789,386.693726 247.367142,382.315216 
	C248.550552,387.193726 248.550552,387.193726 252.918396,386.322174 
	C252.918396,374.256897 252.918396,362.177490 252.918396,349.986816 
	C250.983444,349.986816 249.279327,349.986816 247.292465,349.986816 
	C247.292465,356.986389 247.771683,363.670990 247.104141,370.239044 
	C246.732101,373.899658 244.452087,377.366364 242.332520,381.374084 
M677.303101,353.779785 
	C680.134766,354.399353 682.966431,355.018921 686.031921,355.689636 
	C686.480408,354.017517 686.842102,352.668732 687.228760,351.227203 
	C681.161499,348.890625 675.429199,347.886902 669.410278,349.857697 
	C665.271301,351.212921 662.353394,353.554901 662.032715,358.184601 
	C661.709534,362.850403 664.415771,365.626831 668.269226,367.452148 
	C671.410645,368.940155 674.976074,369.730011 677.786072,371.656830 
	C679.947815,373.139130 682.588074,375.903015 682.596069,378.105774 
	C682.609741,381.872955 678.695923,382.821350 675.478027,382.652740 
	C671.115601,382.424103 666.788513,381.520508 662.448730,380.906799 
	C661.977661,385.291138 662.105591,386.293152 665.972412,386.593292 
	C671.306885,387.007385 676.822083,386.777405 682.088074,385.848755 
	C686.213013,385.121368 688.204041,381.462616 688.470032,377.293640 
	C688.743408,373.008026 686.581665,369.941498 682.852905,368.119690 
	C679.583618,366.522308 676.130005,365.306580 672.796570,363.834595 
	C670.051758,362.622498 666.373352,361.152863 667.845337,357.699982 
	C668.690369,355.717743 672.454102,354.957703 674.939819,353.719482 
	C675.336853,353.521790 675.922852,353.703400 677.303101,353.779785 
M881.289185,366.221558 
	C885.494873,368.157745 889.915405,369.749146 893.813843,372.178497 
	C895.706909,373.358154 897.955139,376.371765 897.616577,378.072021 
	C897.257141,379.876495 894.078369,382.260498 892.032410,382.359589 
	C887.213379,382.593048 882.335815,381.617432 877.265564,381.109283 
	C875.960571,384.248230 877.895630,386.518829 881.298523,386.691650 
	C886.503662,386.955933 891.842102,386.847229 896.955811,385.944458 
	C901.023682,385.226349 903.214539,381.885010 903.488281,377.555389 
	C903.775879,373.008209 901.737427,369.873932 897.729553,368.016632 
	C894.125366,366.346375 890.223633,365.212250 886.860657,363.170502 
	C885.076355,362.087219 884.158081,359.577484 882.848877,357.711700 
	C884.726318,356.404297 886.545471,354.110382 888.493286,353.995331 
	C892.516052,353.757660 896.607300,354.681213 900.975403,355.160583 
	C901.458191,354.164276 902.094666,352.850739 903.220947,350.526398 
	C897.793945,349.961884 892.895630,348.902710 888.051147,349.108734 
	C883.540466,349.300568 879.242371,351.054749 877.551941,356.103119 
	C876.209167,360.113373 877.676453,363.204193 881.289185,366.221558 
M1043.264893,348.900665 
	C1032.290161,348.806061 1026.575317,352.953613 1024.391602,362.598022 
	C1020.711548,378.851318 1031.078125,390.421906 1046.281494,387.080872 
	C1049.806030,386.306335 1051.459717,384.689362 1049.802246,380.973938 
	C1043.665405,382.316772 1037.517578,384.634766 1032.593994,378.783997 
	C1029.193726,374.743378 1028.791992,363.658478 1031.909790,358.780640 
	C1036.247681,351.994141 1042.638672,353.766357 1049.179199,355.407745 
	C1049.757202,353.790680 1050.262695,352.376801 1050.894409,350.609772 
	C1048.270386,349.961823 1046.203491,349.451477 1043.264893,348.900665 
M446.336884,349.644836 
	C444.732666,349.572266 443.128448,349.499695 441.103882,349.408112 
	C441.103882,346.405548 441.103882,343.800720 441.103882,341.195862 
	C440.728699,341.004639 440.353485,340.813446 439.978302,340.622223 
	C436.832031,344.815247 433.685730,349.008301 430.269531,353.561035 
	C432.184265,353.825043 433.757355,354.041962 435.700989,354.309967 
	C435.700989,361.776825 435.578278,369.065491 435.733093,376.348297 
	C435.912811,384.800934 440.731415,388.517334 449.179047,387.358917 
	C452.433960,386.912537 453.099030,385.536591 452.028198,382.751068 
	C443.961487,382.880890 441.697723,381.966431 441.399017,376.992310 
	C440.944366,369.421021 441.279999,361.802338 441.279999,353.924713 
	C445.028992,353.924713 448.321533,353.924713 451.886566,353.924713 
	C451.886566,352.416016 451.886566,351.195801 451.886566,349.646759 
	C450.223694,349.646759 448.740845,349.646759 446.336884,349.644836 
M268.618927,384.920715 
	C271.892761,385.741058 275.127686,386.928955 278.451111,387.280792 
	C281.939484,387.650146 283.256989,385.821320 281.626984,382.441376 
	C274.113220,383.247040 271.414215,381.933289 271.182159,376.607422 
	C270.858612,369.181915 271.100647,361.731750 271.100647,353.882477 
	C274.989349,353.882477 278.421051,353.882477 282.146393,353.882477 
	C281.965942,352.217651 281.834412,351.004333 281.671539,349.501831 
	C278.036041,349.501831 274.756409,349.501831 271.273224,349.501831 
	C271.110779,346.480347 270.965515,343.778503 270.820282,341.076660 
	C270.218658,340.885162 269.617035,340.693665 269.015411,340.502197 
	C267.965240,342.887238 267.284546,345.549377 265.761749,347.580017 
	C264.218170,349.638306 261.842438,351.072601 259.009796,353.477600 
	C262.131836,353.871307 263.727386,354.072510 265.576538,354.305695 
	C265.576538,361.535370 265.330750,368.512817 265.691071,375.458771 
	C265.846832,378.461731 267.254211,381.399750 268.618927,384.920715 
M1005.145935,353.549225 
	C1004.557068,354.207947 1003.968262,354.866699 1003.090271,355.848877 
	C1002.654968,353.542664 1002.319885,351.767487 1001.917664,349.636505 
	C1000.394348,349.781982 999.034058,349.911896 997.840210,350.025940 
	C997.840210,362.585388 997.840210,374.659668 997.840210,387.023621 
	C999.736694,386.934631 1001.314392,386.860565 1003.191895,386.772461 
	C1003.191895,380.949951 1003.181030,375.482208 1003.194092,370.014526 
	C1003.222595,358.134735 1006.559998,354.515991 1018.527039,353.789154 
	C1018.626953,352.315735 1018.730408,350.790192 1018.830933,349.308746 
	C1013.380432,348.120544 1009.150452,349.352661 1005.145935,353.549225 
M461.521973,387.012024 
	C462.792328,386.923676 464.062653,386.835358 465.352722,386.745667 
	C465.352722,374.250061 465.352722,362.067596 465.352722,349.557098 
	C463.389008,349.652649 461.800110,349.729919 459.946808,349.820099 
	C459.946808,356.330200 459.859650,362.460480 459.971375,368.587128 
	C460.082336,374.670319 460.393402,380.749878 461.521973,387.012024 
M464.122833,336.060516 
	C463.304321,336.044128 461.925415,335.740753 461.761993,336.059875 
	C460.953735,337.638184 460.076721,339.376801 460.058136,341.068054 
	C460.050659,341.747040 462.793182,343.291718 463.217468,342.981873 
	C464.445190,342.085266 465.358154,340.534241 465.924347,339.059509 
	C466.168640,338.423157 465.256195,337.342712 464.122833,336.060516 
z"/>
<path fill="#0F1843" opacity="1.000000" stroke="none" 
	d="
M1278.916016,42.325573 
	C1273.918091,42.295399 1268.920166,42.238853 1263.922241,42.238804 
	C846.658691,42.234753 429.395142,42.234688 12.131610,42.241821 
	C8.634470,42.241879 5.137332,42.343353 1.320097,42.698738 
	C1.000000,29.004395 1.000000,15.008790 1.000000,1.042409 
	C427.666656,1.042409 854.333313,1.042409 1281.000000,1.042409 
	C1281.000000,14.413956 1281.000000,27.743093 1280.650391,41.605534 
	C1279.839233,42.201084 1279.377686,42.263332 1278.916016,42.325573 
z"/>
<path fill="#101843" opacity="1.000000" stroke="none" 
	d="
M1279.970337,441.628174 
	C1280.162109,441.634003 1280.354004,441.639893 1280.772949,441.822906 
	C1281.000000,455.329193 1281.000000,468.658386 1281.000000,481.955109 
	C854.333313,481.955109 427.666656,481.955109 1.000000,481.955109 
	C1.000000,468.914307 1.000000,455.918427 1.259552,442.459839 
	C1.680136,441.933807 1.841168,441.870453 2.002199,441.807129 
	C3.496917,441.867584 4.991634,441.980988 6.486353,441.980988 
	C425.521210,441.987885 844.556091,441.986969 1263.590942,441.985474 
	C1264.090698,441.985474 1264.590576,441.974976 1265.874268,441.990845 
	C1267.104614,441.947388 1267.551025,441.882446 1267.997437,441.817505 
	C1270.372681,441.866882 1272.747925,441.916260 1275.959229,441.992737 
	C1277.853638,441.889282 1278.911987,441.758728 1279.970337,441.628174 
z"/>
<path fill="#ACAEC0" opacity="1.000000" stroke="none" 
	d="
M1279.117920,42.570900 
	C1279.377686,42.263332 1279.839233,42.201084 1280.650391,42.069420 
	C1281.000000,42.000000 1281.000000,42.500000 1281.000000,42.749996 
	C1280.439941,42.938736 1279.879883,42.877476 1279.117920,42.570900 
z"/>
<path fill="#E5E7F3" opacity="1.000000" stroke="none" 
	d="
M1.889870,441.611938 
	C1.841168,441.870453 1.680136,441.933807 1.259552,441.998566 
	C1.000000,442.000000 1.000000,441.500000 1.000000,441.250000 
	C1.316473,441.032043 1.575653,441.170929 1.889870,441.611938 
z"/>
<path fill="#121A44" opacity="1.000000" stroke="none" 
	d="
M524.133545,285.136169 
	C484.276459,322.869171 411.746857,317.474152 381.309357,257.405823 
	C375.822906,246.578339 372.995819,235.006287 372.953278,222.791428 
	C372.793182,176.811371 372.587616,130.831482 372.418976,84.851456 
	C372.411163,82.720375 372.595428,80.588593 372.705353,78.117966 
	C382.921326,78.117966 392.694458,78.117966 402.977783,78.117966 
	C402.977783,101.559471 402.977783,125.116318 402.977783,149.961792 
	C430.939270,128.312759 461.040283,122.099251 493.721375,133.023376 
	C514.028564,139.811356 529.545532,153.295944 540.770935,171.438110 
	C561.713684,205.285217 558.051086,255.325882 524.133545,285.136169 
M505.432068,260.930756 
	C529.300659,236.216919 529.325378,199.568527 505.489410,175.894653 
	C481.682251,152.249390 444.649017,152.289795 420.716187,175.987167 
	C397.125122,199.346191 396.974091,236.451202 419.863037,260.435394 
	C442.314789,283.961517 482.340179,285.162018 505.432068,260.930756 
z"/>
<path fill="#121B44" opacity="1.000000" stroke="none" 
	d="
M1001.659607,277.168640 
	C1005.275024,276.667053 1008.890442,276.165466 1013.139404,275.410400 
	C1014.410278,274.849945 1015.047668,274.542969 1015.685120,274.235962 
	C1017.302551,273.638458 1018.919983,273.040955 1021.086182,272.212708 
	C1021.945190,271.716309 1022.255493,271.450684 1022.565796,271.185059 
	C1027.023682,268.074585 1031.471924,264.949951 1035.946167,261.863159 
	C1037.139893,261.039520 1038.404297,259.689301 1039.652222,259.670990 
	C1051.199829,259.501465 1062.750732,259.570892 1075.427002,259.570892 
	C1072.941772,263.611328 1070.996826,266.773621 1068.699829,270.411743 
	C1068.216309,271.253021 1068.084717,271.618439 1067.953125,271.983887 
	C1065.756104,274.523865 1063.559082,277.063843 1060.967285,279.994263 
	C1060.165283,280.928406 1059.758057,281.472107 1059.350830,282.015747 
	C1056.640747,284.388977 1053.930786,286.762207 1050.770630,289.472443 
	C1049.931519,290.208221 1049.542480,290.606995 1049.153442,291.005737 
	C1046.859619,292.444214 1044.565674,293.882690 1041.837646,295.688171 
	C1041.138184,296.322571 1040.872925,296.589996 1040.607544,296.857422 
	C1040.607544,296.857422 1040.232788,296.821350 1039.828003,296.957916 
	C1039.166138,297.352814 1038.909058,297.611145 1038.651978,297.869507 
	C1018.705200,308.021881 997.837097,311.262939 975.714722,307.013489 
	C942.503479,300.633881 912.237488,271.246918 905.983643,237.799469 
	C896.748230,188.405106 922.430237,148.741699 962.256592,133.786438 
	C1020.557495,111.893677 1076.995117,151.319275 1084.077881,205.696854 
	C1085.222412,214.484406 1084.238647,223.549194 1084.238647,233.778473 
	C1059.425415,233.778473 1035.026978,233.778458 1010.628601,233.778458 
	C986.189331,233.778458 961.750000,233.778473 937.222473,233.778473 
	C939.636658,253.248489 961.821899,273.841064 983.845886,277.163208 
	C984.661560,277.151947 984.831482,277.089081 985.001404,277.026184 
	C986.131165,277.245605 987.260925,277.464996 989.168823,277.755127 
	C993.851135,277.606781 997.755371,277.387726 1001.659607,277.168640 
M1036.496826,203.104843 
	C1041.877319,203.104843 1047.257812,203.104843 1052.879150,203.104843 
	C1044.818970,174.550751 1019.497803,156.452728 990.773499,157.941299 
	C965.506775,159.250687 940.686279,179.819855 936.623718,203.108215 
	C969.620667,203.108215 1002.559204,203.108215 1036.496826,203.104843 
z"/>
<path fill="#111A44" opacity="1.000000" stroke="none" 
	d="
M224.983749,301.113892 
	C201.323868,289.479248 184.566544,271.922150 176.286377,247.115402 
	C158.441315,193.652969 192.784393,137.735703 248.605118,128.907928 
	C297.137573,121.232750 343.637543,154.575851 351.638733,203.057236 
	C352.771088,209.918457 352.813354,217.006241 352.856628,223.992279 
	C353.024933,251.155167 352.990234,278.319336 353.030823,305.483002 
	C353.032257,306.456146 353.030975,307.429291 353.030975,308.699280 
	C342.791687,308.699280 332.869324,308.699280 322.553406,308.699280 
	C322.553406,301.720886 322.553406,294.654114 322.553406,286.678802 
	C292.523834,310.015503 260.318542,315.497498 224.983749,301.113892 
M227.715958,169.153229 
	C207.111710,184.717941 198.953033,205.626984 203.545181,230.641998 
	C209.233994,261.630981 240.477997,282.572021 271.700470,277.586212 
	C305.764526,272.146667 328.145844,240.385620 321.376434,206.176941 
	C312.765472,162.662354 262.294678,145.005905 227.715958,169.153229 
z"/>
<path fill="#121A44" opacity="1.000000" stroke="none" 
	d="
M689.442261,131.523071 
	C723.860413,140.991516 752.266663,175.488113 753.345337,210.652710 
	C754.330933,242.785049 753.881226,274.961456 754.048950,307.118500 
	C754.051392,307.584808 753.858276,308.052185 753.706421,308.748596 
	C743.746582,308.748596 733.828796,308.748596 723.580933,308.748596 
	C723.580933,301.611237 723.580933,294.557281 723.580933,286.519165 
	C698.530090,306.901123 670.714417,313.525940 639.996399,305.982605 
	C621.302429,301.391998 606.312500,290.702881 593.708130,276.234802 
	C567.752930,246.441788 566.597473,199.606277 587.013550,169.614426 
	C611.326416,133.897934 648.652771,120.824486 689.442261,131.523071 
M688.192261,163.198196 
	C678.898193,158.889664 669.038635,157.708710 658.961304,158.281464 
	C641.007935,159.301849 626.818054,167.796310 616.020447,181.667709 
	C602.762695,198.699768 599.610291,218.113403 606.934204,238.240311 
	C616.541077,264.641083 637.295349,277.658844 665.848572,278.068329 
	C698.012085,278.529541 732.554932,245.290741 721.944275,203.331406 
	C717.320496,185.046860 705.784546,171.910187 688.192261,163.198196 
z"/>
<path fill="#0F1A43" opacity="1.000000" stroke="none" 
	d="
M886.319336,220.672165 
	C907.768433,239.561386 906.721191,275.678467 884.449402,296.314240 
	C854.950684,323.646149 800.965210,322.116791 774.425171,292.753113 
	C765.897217,283.317902 760.691589,272.522644 760.048950,259.097198 
	C762.606750,258.865265 764.866150,258.541321 767.132996,258.475800 
	C776.125793,258.215973 785.124512,258.129974 794.113037,257.774902 
	C797.048950,257.658905 798.579102,258.389893 799.387756,261.489105 
	C802.960571,275.181976 813.152161,281.716614 826.103088,283.615692 
	C838.179688,285.386566 849.284851,282.008575 857.614990,272.400482 
	C866.874634,261.720276 865.504944,247.346863 853.302185,240.094223 
	C842.381775,233.603806 830.303711,229.042068 818.666199,223.784683 
	C811.558838,220.573868 804.141235,218.014023 797.168640,214.547012 
	C762.636719,197.376465 762.277710,155.371460 792.669861,135.238678 
	C819.383850,117.542488 858.135864,121.394020 880.261780,144.602646 
	C887.876892,152.590408 891.710632,162.266693 892.082214,173.879532 
	C879.553223,173.879532 867.427856,173.957230 855.307800,173.741638 
	C854.265442,173.723099 852.701294,171.928192 852.322937,170.673904 
	C849.630127,161.746628 843.294373,157.325882 834.490662,156.213318 
	C824.970581,155.010193 816.798279,157.926605 811.655029,166.296356 
	C807.438599,173.157913 808.878418,182.646744 819.030457,188.122375 
	C826.466919,192.133316 834.416443,195.227310 842.248169,198.461548 
	C850.688477,201.947144 859.513672,204.597153 867.689941,208.595291 
	C874.187683,211.772614 879.960815,216.431747 886.319336,220.672165 
z"/>
<path fill="#F6F7F9" opacity="1.000000" stroke="none" 
	d="
M1070.270020,297.501831 
	C1071.454468,294.735748 1072.638916,291.969666 1074.520264,289.117249 
	C1075.484375,288.673828 1075.751343,288.316650 1076.018311,287.959473 
	C1076.018311,287.959473 1076.016602,288.014374 1076.404541,287.959473 
	C1076.859619,287.251862 1076.926636,286.599152 1076.993652,285.946472 
	C1076.993652,285.946472 1077.002319,286.003021 1077.244873,286.334381 
	C1077.993530,286.097504 1078.499634,285.529266 1079.005859,284.961060 
	C1079.005859,284.961060 1079.005127,285.006927 1079.324707,285.069702 
	C1080.429077,284.408722 1081.213989,283.684967 1081.998901,282.961212 
	C1081.998901,282.961212 1082.004639,283.005035 1082.382446,283.050873 
	C1089.271362,280.370300 1095.734009,280.176147 1102.185303,283.348724 
	C1103.036377,283.767212 1104.084961,283.784088 1105.041992,283.986938 
	C1105.041992,283.986969 1105.002075,284.004456 1104.749756,284.203491 
	C1105.538940,284.979095 1106.580444,285.555695 1107.621826,286.132294 
	C1113.353638,288.340363 1113.070557,293.706055 1114.181152,299.163239 
	C1114.260620,301.175629 1114.222168,302.426880 1114.183838,303.678162 
	C1114.183838,303.678162 1113.992188,303.999237 1113.642578,304.344391 
	C1112.199707,307.808136 1111.106567,310.926727 1110.013428,314.045288 
	C1110.013428,314.045288 1109.995728,313.999420 1109.730957,313.725464 
	C1106.533447,315.700195 1103.638306,318.000885 1100.651489,320.175507 
	C1099.173950,321.251221 1097.527344,322.094818 1095.957275,323.043427 
	C1095.957275,323.043427 1095.993896,322.981232 1095.654297,323.128510 
	C1093.378784,323.442261 1091.442749,323.608734 1089.506714,323.775208 
	C1088.834106,323.715179 1088.161499,323.655151 1087.468018,323.120026 
	C1084.291016,320.578613 1081.134766,318.512329 1077.978516,316.446045 
	C1077.978516,316.446045 1077.628296,316.219849 1077.424316,315.806641 
	C1076.134155,314.263641 1075.047974,313.133881 1073.961670,312.004120 
	C1073.961670,312.004120 1074.004272,311.996307 1074.070557,311.619263 
	C1073.405396,307.438141 1072.744263,303.618103 1071.888916,299.842010 
	C1071.694580,298.983795 1070.827515,298.277863 1070.270020,297.501831 
M1104.136963,294.160706 
	C1104.390991,293.443726 1104.644897,292.726746 1104.898804,292.009705 
	C1103.420654,291.827972 1101.721191,291.096619 1100.512451,291.583649 
	C1098.279785,292.483246 1094.810791,293.929321 1094.642822,295.454315 
	C1094.415894,297.516815 1096.626709,300.013458 1098.173340,302.031097 
	C1098.883667,302.957703 1100.733643,302.940948 1101.649780,303.797852 
	C1102.723633,304.802338 1104.165039,306.472534 1103.934448,307.521515 
	C1103.694458,308.612885 1101.748291,309.774628 1100.370850,310.065430 
	C1098.344604,310.493195 1096.161011,310.175690 1094.044434,310.175690 
	C1093.990601,310.589630 1093.936768,311.003601 1093.882935,311.417542 
	C1095.796387,311.762207 1097.704590,312.355591 1099.624634,312.396729 
	C1103.004150,312.469147 1106.128296,311.443268 1106.834351,307.679352 
	C1107.506470,304.095764 1105.017944,302.322052 1101.999268,301.136169 
	C1100.622070,300.595123 1099.131348,300.065430 1098.062256,299.114502 
	C1097.350708,298.481567 1096.856812,297.009644 1097.070801,296.103424 
	C1097.271729,295.252045 1098.428711,294.281891 1099.347778,294.029572 
	C1100.568115,293.694550 1101.965698,294.005341 1104.136963,294.160706 
M1085.811157,302.484131 
	C1085.811157,299.727051 1085.811157,296.969971 1085.811157,294.318939 
	C1088.393188,293.998932 1090.290894,293.763702 1092.188721,293.528473 
	C1092.117920,293.187561 1092.047241,292.846619 1091.976440,292.505707 
	C1087.000854,292.505707 1082.025391,292.505707 1077.049805,292.505707 
	C1077.051025,292.882050 1077.052368,293.258362 1077.053589,293.634705 
	C1078.926636,293.839294 1080.799683,294.043884 1083.488647,294.337585 
	C1083.488647,300.300964 1083.488647,306.202515 1083.488647,312.104065 
	C1084.261963,312.100464 1085.035278,312.096863 1085.808594,312.093231 
	C1085.808594,309.213745 1085.808594,306.334229 1085.811157,302.484131 
z"/>
<path fill="#1C2347" opacity="1.000000" stroke="none" 
	d="
M611.510315,341.647552 
	C616.278809,350.109344 614.616455,355.694153 605.841064,360.635803 
	C610.869385,362.729767 615.198364,365.165314 615.766785,371.180359 
	C616.455200,378.465057 612.733215,384.680298 605.287354,385.835815 
	C597.505615,387.043427 589.519531,386.934387 581.370178,387.415833 
	C581.370178,370.210297 581.370178,353.947845 581.370178,336.884247 
	C591.520691,337.827942 601.978821,334.759460 611.510315,341.647552 
M600.710938,363.443756 
	C596.288391,363.443756 591.865845,363.443756 587.342590,363.443756 
	C587.342590,369.757111 587.342590,375.666656 587.342590,381.871338 
	C591.852356,381.871338 596.170227,382.213654 600.411316,381.788940 
	C606.366211,381.192596 609.556885,377.754211 609.722290,372.627777 
	C609.872742,367.967896 607.430603,365.286133 600.710938,363.443756 
M602.632996,357.800964 
	C606.792847,356.525665 608.772827,353.478668 607.874390,349.451935 
	C607.373291,347.206024 605.514099,343.976257 603.709839,343.550476 
	C598.396851,342.296692 592.805786,342.221497 587.480957,341.700378 
	C587.480957,347.937225 587.480957,353.003448 587.480957,357.957642 
	C592.496643,357.957642 597.136353,357.957642 602.632996,357.800964 
z"/>
<path fill="#1A2045" opacity="1.000000" stroke="none" 
	d="
M384.982971,378.930176 
	C384.982971,381.732178 384.982971,384.045959 384.982971,386.669739 
	C383.019836,386.669739 381.318390,386.669739 379.122559,386.669739 
	C379.122559,378.786224 379.158752,370.996643 379.111511,363.207581 
	C379.071198,356.563263 377.203491,354.105743 372.115997,353.773010 
	C366.178955,353.384644 362.158905,356.045990 361.751465,361.993988 
	C361.196991,370.088043 361.613251,378.248596 361.613251,386.719238 
	C359.371368,386.845703 357.799530,386.934357 355.582428,387.059448 
	C355.582428,380.495056 355.592010,374.232849 355.576843,367.970703 
	C355.571991,365.972656 355.625946,363.962860 355.437531,361.978943 
	C354.881104,356.120056 352.911072,353.977539 348.082245,353.760864 
	C342.594482,353.514709 338.811920,355.970856 338.115784,361.356232 
	C337.372742,367.104126 337.542511,372.972931 337.372223,378.790680 
	C337.295105,381.426056 337.359131,384.065521 337.359131,386.835419 
	C335.439362,386.835419 333.964935,386.835419 331.879364,386.835419 
	C331.879364,380.724945 331.879364,374.612457 331.879364,368.499969 
	C331.879364,362.372437 331.879364,356.244904 331.879364,348.219025 
	C334.705505,350.236267 336.369293,351.423828 337.804810,352.448456 
	C341.146881,351.416992 345.287567,349.084076 349.367157,349.186432 
	C353.195435,349.282532 356.959045,351.953491 360.853760,353.533081 
	C363.188446,352.334381 366.285797,349.875153 369.750519,349.134613 
	C378.723755,347.216705 384.607330,352.197815 384.928314,361.452454 
	C385.124512,367.109436 384.976410,372.778381 384.982971,378.930176 
z"/>
<path fill="#1A2045" opacity="1.000000" stroke="none" 
	d="
M798.068604,360.000000 
	C798.084167,352.502075 798.096252,345.504059 798.127014,338.506195 
	C798.128357,338.202301 798.301270,337.899200 798.709961,336.565521 
	C805.838867,337.106781 813.278442,337.254852 820.570190,338.369934 
	C825.538086,339.129608 828.615723,342.755707 829.462585,347.944092 
	C830.424683,353.838654 829.120667,358.880096 824.020081,362.457367 
	C822.828186,363.293304 821.436157,363.843750 819.933350,364.631958 
	C824.336121,371.968628 828.674927,379.198792 833.057495,386.501801 
	C828.325439,388.036041 825.592346,386.524414 823.735901,382.334900 
	C822.263123,379.011261 819.657593,376.161987 818.366455,372.791260 
	C815.740540,365.936523 810.869446,364.885040 804.250488,366.556824 
	C804.250488,373.069519 804.250488,379.680847 804.250488,386.768402 
	C802.207947,386.864594 800.473328,386.946259 798.068604,387.059509 
	C798.068604,378.040558 798.068604,369.270294 798.068604,360.000000 
M808.565308,361.051239 
	C811.056519,360.986053 813.574524,361.128754 816.033142,360.811340 
	C820.775513,360.199036 823.621765,356.856781 823.892639,351.974243 
	C824.166931,347.027710 821.836853,343.773346 816.712830,342.902588 
	C812.712891,342.222839 808.599731,342.208801 804.086365,341.864563 
	C804.086365,347.916534 803.916992,353.210083 804.245544,358.472504 
	C804.303406,359.398560 806.445374,360.194489 808.565308,361.051239 
z"/>
<path fill="#1A2045" opacity="1.000000" stroke="none" 
	d="
M740.621704,384.495361 
	C734.034790,377.399261 732.595093,363.802795 737.332031,355.873444 
	C742.369812,347.440552 752.923462,346.445221 761.606628,353.927887 
	C761.606628,347.309540 761.606628,340.983612 761.606628,334.238129 
	C763.478760,334.097473 765.028259,333.981049 766.966614,333.835388 
	C766.966614,351.641876 766.966614,369.130127 766.966614,386.803406 
	C765.663574,386.803406 764.393188,386.803406 763.043152,386.803406 
	C762.613098,385.268524 762.217407,383.856079 761.809204,382.399353 
	C754.426147,388.510864 748.617920,389.141266 740.621704,384.495361 
M758.016846,380.594666 
	C762.699951,375.241119 762.070679,368.970032 761.042297,362.669586 
	C760.028503,356.458466 756.997864,353.768768 751.119141,353.668335 
	C745.711548,353.575989 741.882751,356.804413 741.017700,362.629486 
	C740.582397,365.560272 740.471130,368.608124 740.723145,371.559509 
	C741.590454,381.715607 748.004822,385.292999 758.016846,380.594666 
z"/>
<path fill="#1C2347" opacity="1.000000" stroke="none" 
	d="
M173.897827,382.697754 
	C179.461197,368.434540 184.832947,354.499542 190.421097,340.651886 
	C191.029465,339.144348 192.822311,337.263885 194.183441,337.164246 
	C195.403473,337.074982 197.416046,338.948425 197.999435,340.392181 
	C204.147736,355.608002 210.079407,370.911377 216.273010,386.706024 
	C214.254303,386.837555 212.555817,386.948242 210.497513,387.082367 
	C208.318649,381.719177 206.159622,376.404907 203.952454,370.972076 
	C198.078018,370.972076 192.419891,370.822693 186.781342,371.088654 
	C185.541870,371.147095 183.867691,372.422638 183.270538,373.587280 
	C181.839920,376.377380 180.660782,379.365234 179.878082,382.401611 
	C178.850616,386.387451 176.838181,388.093231 172.460876,386.565948 
	C172.894638,385.400818 173.331940,384.226135 173.897827,382.697754 
M196.177017,349.340454 
	C195.637527,347.952026 195.098038,346.563629 194.274017,344.442902 
	C192.666855,348.647858 191.331955,352.005280 190.100800,355.400330 
	C188.899490,358.713074 187.804169,362.064270 186.575775,365.651306 
	C192.096497,365.651306 196.853119,365.651306 202.158585,365.651306 
	C200.176117,360.219452 198.320969,355.136383 196.177017,349.340454 
z"/>
<path fill="#20274A" opacity="1.000000" stroke="none" 
	d="
M409.920593,364.932190 
	C412.691528,364.806702 415.012573,364.694977 417.264038,364.586578 
	C419.770538,354.337158 414.922943,352.014526 399.750336,356.031555 
	C397.577393,353.310242 397.625153,351.160889 401.569092,350.680908 
	C406.256165,350.110413 411.044922,349.348328 415.692474,349.761627 
	C420.590210,350.197174 423.257202,353.866425 423.343750,358.785278 
	C423.504730,367.933594 423.389893,377.086792 423.389893,386.260010 
	C419.314209,388.689056 418.883820,385.538818 418.526154,383.068848 
	C414.764862,384.589905 411.336212,386.682251 407.656555,387.315094 
	C400.370361,388.568268 394.841644,384.886749 393.910889,379.028412 
	C392.791046,371.980011 396.229645,367.370697 404.031158,365.628174 
	C405.806580,365.231628 407.655548,365.164612 409.920593,364.932190 
M412.084747,381.906525 
	C417.354401,379.030945 418.667542,374.506317 417.619598,368.451080 
	C414.039368,368.719208 410.561523,368.690552 407.197784,369.295898 
	C401.416992,370.336243 399.029694,373.395691 399.899384,377.955170 
	C400.637848,381.826752 403.791473,383.381683 409.402435,382.608917 
	C410.055298,382.519012 410.688202,382.284119 412.084747,381.906525 
z"/>
<path fill="#20274A" opacity="1.000000" stroke="none" 
	d="
M652.793823,385.454285 
	C648.875061,387.535156 648.875061,387.535156 647.014832,382.281555 
	C642.703186,386.616028 637.632446,388.420929 631.678650,387.253845 
	C626.963928,386.329651 623.851501,383.676788 622.991028,378.873077 
	C622.058655,373.667603 623.970581,369.200317 628.673096,367.355988 
	C632.292847,365.936340 636.350281,365.572266 640.245728,364.939941 
	C642.348206,364.598633 644.519165,364.679413 646.582947,364.573700 
	C648.220764,353.783752 644.001404,351.785614 628.962585,356.046509 
	C626.919373,353.523560 626.588501,351.606445 630.544739,350.664215 
	C632.156372,350.280426 633.689880,349.471985 635.312866,349.248749 
	C644.985291,347.918518 653.370239,349.925659 652.875732,363.045166 
	C652.600159,370.356842 652.823914,377.687347 652.793823,385.454285 
M636.273560,369.220612 
	C635.487488,369.474426 634.708984,369.755524 633.914001,369.977509 
	C629.794006,371.127869 628.454041,374.072083 629.073181,377.969330 
	C629.689331,381.847748 632.626160,382.803223 636.053772,382.818756 
	C644.033142,382.854919 648.117981,377.370697 646.420410,368.523346 
	C643.357666,368.707153 640.248901,368.893738 636.273560,369.220612 
z"/>
<path fill="#1C2347" opacity="1.000000" stroke="none" 
	d="
M1076.809570,387.553711 
	C1068.827026,387.779327 1062.269897,385.511322 1059.161133,378.211060 
	C1055.720459,370.131042 1056.066040,361.820343 1061.424438,354.513977 
	C1065.227295,349.328522 1071.001953,347.854980 1077.060791,349.170715 
	C1083.044434,350.470093 1086.977905,354.418335 1088.096313,360.644653 
	C1088.557373,363.210968 1088.657349,365.842163 1088.971436,368.934540 
	C1080.235352,368.934540 1071.987671,368.934540 1063.804810,368.934540 
	C1062.182251,380.764343 1070.960815,385.026428 1086.557251,380.344696 
	C1087.946045,383.556030 1087.306274,385.686798 1083.576660,386.359650 
	C1081.461182,386.741241 1079.348877,387.139832 1076.809570,387.553711 
M1080.602295,356.968079 
	C1077.498779,353.213562 1073.435669,352.697571 1069.345825,354.474915 
	C1065.231323,356.262909 1063.434204,359.902374 1063.471680,364.532318 
	C1069.960327,364.532318 1076.192627,364.532318 1083.233276,364.532318 
	C1082.376587,361.909119 1081.680908,359.779236 1080.602295,356.968079 
z"/>
<path fill="#1A2045" opacity="1.000000" stroke="none" 
	d="
M870.013672,364.267303 
	C870.027039,366.018402 870.027039,367.316925 870.027039,369.021454 
	C861.520813,369.021454 853.276062,369.021454 845.082825,369.021454 
	C843.724182,380.838745 851.919800,384.846588 868.001587,380.448181 
	C869.114380,383.353577 868.817444,385.103363 865.327209,386.272522 
	C856.525635,389.220947 846.579041,387.166443 842.096069,381.040466 
	C837.256653,374.427338 837.485046,361.250122 842.606567,354.714905 
	C846.744690,349.434540 852.419312,347.777802 858.632935,349.234497 
	C866.039795,350.970917 869.337891,356.511047 870.013672,364.267303 
M857.356079,364.823334 
	C859.458313,364.823334 861.560608,364.823334 863.645874,364.823334 
	C863.749207,357.342407 860.634949,353.645660 854.748657,353.636200 
	C848.813293,353.626648 845.178406,357.643951 845.054749,364.826569 
	C848.834900,364.826569 852.617615,364.826569 857.356079,364.823334 
z"/>
<path fill="#1C2347" opacity="1.000000" stroke="none" 
	d="
M485.233643,385.949524 
	C476.485046,381.184265 474.905853,373.467773 475.716583,364.886932 
	C476.407593,357.573334 479.643036,352.009766 487.189362,349.627533 
	C497.474915,346.380554 507.822815,352.207397 509.056793,362.900024 
	C509.643127,367.980774 509.254578,373.681580 507.479279,378.415863 
	C504.322540,386.833893 495.093506,389.575958 485.233643,385.949524 
M482.256622,361.172638 
	C482.216248,365.603241 481.687714,370.098419 482.262787,374.447632 
	C482.935577,379.536316 486.907715,382.495148 491.927063,382.766205 
	C497.129822,383.047150 501.504944,380.710846 502.563232,375.767090 
	C503.500580,371.388123 503.517029,366.640198 502.992218,362.166321 
	C502.417389,357.265991 499.123138,354.286163 493.971313,353.818848 
	C488.609070,353.332397 484.563721,355.128662 482.256622,361.172638 
z"/>
<path fill="#1C2347" opacity="1.000000" stroke="none" 
	d="
M725.603271,383.760864 
	C719.402649,388.886841 712.600098,388.409088 705.861267,386.022675 
	C699.590332,383.801910 696.404053,378.750671 696.048706,372.286560 
	C695.823792,368.194427 695.922729,363.883972 696.972046,359.964783 
	C699.040161,352.240570 706.202148,348.001312 714.256409,348.931427 
	C721.289551,349.743622 726.363831,355.460724 726.964355,363.351929 
	C727.099548,365.127838 726.984253,366.922791 726.984253,369.128906 
	C718.435852,369.128906 710.186340,369.128906 701.967346,369.128906 
	C701.467590,381.167603 708.156006,384.354004 725.327087,380.509064 
	C725.430542,381.488647 725.530762,382.437927 725.603271,383.760864 
M717.716858,355.555023 
	C709.499329,351.044403 702.251221,355.122498 702.113525,364.562897 
	C708.308411,364.562897 714.499329,364.562897 721.879211,364.562897 
	C720.504822,361.312897 719.402588,358.706543 717.716858,355.555023 
z"/>
<path fill="#1C2347" opacity="1.000000" stroke="none" 
	d="
M289.964355,378.852417 
	C289.253326,372.974060 287.784149,367.348022 288.347473,361.933411 
	C289.133423,354.378937 295.718475,349.306671 303.155670,348.897034 
	C311.738556,348.424316 317.924377,352.360443 320.597961,359.995911 
	C323.590729,368.542908 321.617493,378.642822 315.977966,383.643158 
	C311.135803,387.936493 302.771301,389.062408 296.839874,385.604095 
	C294.237457,384.086731 292.333862,381.370789 289.964355,378.852417 
M293.443604,365.956970 
	C293.642731,368.601990 293.556671,371.307098 294.098419,373.879944 
	C295.348816,379.818146 299.294525,382.891388 304.996765,382.775970 
	C310.545197,382.663635 314.166656,379.817993 315.156433,373.785889 
	C315.760345,370.105286 315.762909,366.152618 315.125580,362.480072 
	C314.014954,356.080414 309.721527,353.221771 303.305573,353.776489 
	C297.649048,354.265533 295.064667,357.282562 293.443604,365.956970 
z"/>
<path fill="#1C2347" opacity="1.000000" stroke="none" 
	d="
M938.809204,383.872253 
	C931.964478,388.585938 925.032410,389.071747 918.429016,384.767059 
	C910.683411,379.717743 909.964966,371.625854 911.065125,363.414825 
	C911.994263,356.480682 915.777710,351.535248 922.836182,349.448303 
	C931.494629,346.888214 940.462280,350.986237 943.442139,359.564545 
	C946.460205,368.252808 945.905151,376.581940 938.809204,383.872253 
M917.014160,372.898071 
	C919.031494,380.374756 922.701111,383.358459 929.086670,382.713837 
	C934.943298,382.122589 938.545410,378.021606 938.902832,370.915924 
	C939.058838,367.814484 938.800293,364.580627 938.063049,361.570251 
	C936.730591,356.129333 933.073669,353.650085 927.490417,353.729675 
	C922.093872,353.806580 918.300476,356.666565 917.312073,362.116119 
	C916.727966,365.336700 917.022583,368.716614 917.014160,372.898071 
z"/>
<path fill="#20274A" opacity="1.000000" stroke="none" 
	d="
M521.271240,386.996246 
	C520.348816,386.080322 519.475464,385.173950 519.467957,384.260406 
	C519.374268,372.963531 519.406799,361.665588 519.406799,350.219513 
	C523.144653,348.822266 525.039124,349.835754 524.890808,352.701080 
	C529.326416,351.417206 533.687927,349.334991 538.165833,349.043945 
	C545.540771,348.564667 550.019653,352.400116 550.531677,359.796661 
	C551.147522,368.692688 550.677368,377.663879 550.677368,386.801147 
	C548.797241,386.801147 547.184265,386.801147 544.971436,386.801147 
	C544.971436,379.392181 544.986755,371.953522 544.967041,364.514893 
	C544.947632,357.178040 543.123840,354.409912 538.002625,353.846710 
	C530.924255,353.068268 526.637756,355.748260 525.735291,362.935242 
	C524.870544,369.821655 525.113281,376.866028 525.162292,383.838898 
	C525.181519,386.574402 524.222717,387.414856 521.271240,386.996246 
z"/>
<path fill="#1C2347" opacity="1.000000" stroke="none" 
	d="
M954.734131,376.163452 
	C954.700195,367.269989 954.700195,358.806183 954.700195,349.931091 
	C956.372192,349.824860 957.935547,349.725555 960.144409,349.585205 
	C960.144409,357.178040 960.126770,364.427673 960.149048,371.677216 
	C960.173340,379.588379 962.352234,382.468842 968.437073,382.722443 
	C975.489014,383.016296 979.468079,379.479309 979.790894,371.906982 
	C980.100403,364.645599 979.857788,357.360687 979.857788,349.865479 
	C981.995239,349.865479 983.591675,349.865479 985.508301,349.865479 
	C985.508301,362.209961 985.508301,374.410004 985.508301,386.610016 
	C985.156311,386.990417 984.804321,387.370789 984.452332,387.751190 
	C982.718079,386.316040 980.983765,384.880890 979.182800,383.390533 
	C969.159424,392.111877 953.984985,386.745453 954.734131,376.163452 
z"/>
<path fill="#20274A" opacity="1.000000" stroke="none" 
	d="
M242.682220,381.147278 
	C244.452087,377.366364 246.732101,373.899658 247.104141,370.239044 
	C247.771683,363.670990 247.292465,356.986389 247.292465,349.986816 
	C249.279327,349.986816 250.983444,349.986816 252.918396,349.986816 
	C252.918396,362.177490 252.918396,374.256897 252.918396,386.322174 
	C248.550552,387.193726 248.550552,387.193726 247.367142,382.315216 
	C243.230789,386.693726 238.235794,388.200989 232.453354,387.364899 
	C225.905121,386.417969 222.187698,382.813293 221.978760,376.164398 
	C221.707550,367.534637 221.912521,358.889923 221.912521,349.942932 
	C223.768005,349.942932 225.494858,349.942932 227.738312,349.942932 
	C227.738312,357.202423 227.707855,364.299347 227.745483,371.395905 
	C227.801788,382.014648 232.076035,384.922943 242.682220,381.147278 
z"/>
<path fill="#1E2548" opacity="1.000000" stroke="none" 
	d="
M676.862305,353.744720 
	C675.922852,353.703400 675.336853,353.521790 674.939819,353.719482 
	C672.454102,354.957703 668.690369,355.717743 667.845337,357.699982 
	C666.373352,361.152863 670.051758,362.622498 672.796570,363.834595 
	C676.130005,365.306580 679.583618,366.522308 682.852905,368.119690 
	C686.581665,369.941498 688.743408,373.008026 688.470032,377.293640 
	C688.204041,381.462616 686.213013,385.121368 682.088074,385.848755 
	C676.822083,386.777405 671.306885,387.007385 665.972412,386.593292 
	C662.105591,386.293152 661.977661,385.291138 662.448730,380.906799 
	C666.788513,381.520508 671.115601,382.424103 675.478027,382.652740 
	C678.695923,382.821350 682.609741,381.872955 682.596069,378.105774 
	C682.588074,375.903015 679.947815,373.139130 677.786072,371.656830 
	C674.976074,369.730011 671.410645,368.940155 668.269226,367.452148 
	C664.415771,365.626831 661.709534,362.850403 662.032715,358.184601 
	C662.353394,353.554901 665.271301,351.212921 669.410278,349.857697 
	C675.429199,347.886902 681.161499,348.890625 687.228760,351.227203 
	C686.842102,352.668732 686.480408,354.017517 686.031921,355.689636 
	C682.966431,355.018921 680.134766,354.399353 676.862305,353.744720 
z"/>
<path fill="#1E2548" opacity="1.000000" stroke="none" 
	d="
M880.976807,366.019318 
	C877.676453,363.204193 876.209167,360.113373 877.551941,356.103119 
	C879.242371,351.054749 883.540466,349.300568 888.051147,349.108734 
	C892.895630,348.902710 897.793945,349.961884 903.220947,350.526398 
	C902.094666,352.850739 901.458191,354.164276 900.975403,355.160583 
	C896.607300,354.681213 892.516052,353.757660 888.493286,353.995331 
	C886.545471,354.110382 884.726318,356.404297 882.848877,357.711670 
	C884.158081,359.577484 885.076355,362.087219 886.860657,363.170502 
	C890.223633,365.212250 894.125366,366.346375 897.729553,368.016632 
	C901.737427,369.873932 903.775879,373.008209 903.488281,377.555389 
	C903.214539,381.885010 901.023682,385.226349 896.955811,385.944458 
	C891.842102,386.847229 886.503662,386.955933 881.298523,386.691650 
	C877.895630,386.518829 875.960571,384.248230 877.265564,381.109283 
	C882.335815,381.617432 887.213379,382.593048 892.032410,382.359589 
	C894.078369,382.260498 897.257141,379.876495 897.616577,378.072021 
	C897.955139,376.371765 895.706909,373.358154 893.813843,372.178497 
	C889.915405,369.749146 885.494873,368.157745 880.976807,366.019318 
z"/>
<path fill="#1E2548" opacity="1.000000" stroke="none" 
	d="
M1043.700806,348.920898 
	C1046.203491,349.451477 1048.270386,349.961823 1050.894409,350.609772 
	C1050.262695,352.376801 1049.757202,353.790680 1049.179199,355.407745 
	C1042.638672,353.766357 1036.247681,351.994141 1031.909790,358.780640 
	C1028.791992,363.658478 1029.193726,374.743378 1032.593994,378.783997 
	C1037.517578,384.634766 1043.665405,382.316772 1049.802246,380.973938 
	C1051.459717,384.689362 1049.806030,386.306335 1046.281494,387.080872 
	C1031.078125,390.421906 1020.711548,378.851318 1024.391602,362.598022 
	C1026.575317,352.953613 1032.290161,348.806061 1043.700806,348.920898 
z"/>
<path fill="#182043" opacity="1.000000" stroke="none" 
	d="
M446.797455,349.645813 
	C448.740845,349.646759 450.223694,349.646759 451.886566,349.646759 
	C451.886566,351.195801 451.886566,352.416016 451.886566,353.924713 
	C448.321533,353.924713 445.028992,353.924713 441.279999,353.924713 
	C441.279999,361.802338 440.944366,369.421021 441.399017,376.992310 
	C441.697723,381.966431 443.961487,382.880890 452.028198,382.751068 
	C453.099030,385.536591 452.433960,386.912537 449.179047,387.358917 
	C440.731415,388.517334 435.912811,384.800934 435.733093,376.348297 
	C435.578278,369.065491 435.700989,361.776825 435.700989,354.309967 
	C433.757355,354.041962 432.184265,353.825043 430.269531,353.561035 
	C433.685730,349.008301 436.832031,344.815247 439.978302,340.622223 
	C440.353485,340.813446 440.728699,341.004639 441.103882,341.195862 
	C441.103882,343.800720 441.103882,346.405548 441.103882,349.408112 
	C443.128448,349.499695 444.732666,349.572266 446.797455,349.645813 
z"/>
<path fill="#182043" opacity="1.000000" stroke="none" 
	d="
M268.355957,384.643982 
	C267.254211,381.399750 265.846832,378.461731 265.691071,375.458771 
	C265.330750,368.512817 265.576538,361.535370 265.576538,354.305695 
	C263.727386,354.072510 262.131836,353.871307 259.009796,353.477600 
	C261.842438,351.072601 264.218170,349.638306 265.761749,347.580017 
	C267.284546,345.549377 267.965240,342.887238 269.015411,340.502197 
	C269.617035,340.693665 270.218658,340.885162 270.820282,341.076660 
	C270.965515,343.778503 271.110779,346.480347 271.273224,349.501831 
	C274.756409,349.501831 278.036041,349.501831 281.671539,349.501831 
	C281.834412,351.004333 281.965942,352.217651 282.146393,353.882477 
	C278.421051,353.882477 274.989349,353.882477 271.100647,353.882477 
	C271.100647,361.731750 270.858612,369.181915 271.182159,376.607422 
	C271.414215,381.933289 274.113220,383.247040 281.626984,382.441376 
	C283.256989,385.821320 281.939484,387.650146 278.451111,387.280792 
	C275.127686,386.928955 271.892761,385.741058 268.355957,384.643982 
z"/>
<path fill="#182043" opacity="1.000000" stroke="none" 
	d="
M1005.402954,353.295349 
	C1009.150452,349.352661 1013.380432,348.120544 1018.830933,349.308746 
	C1018.730408,350.790192 1018.626953,352.315735 1018.527039,353.789154 
	C1006.559998,354.515991 1003.222595,358.134735 1003.194092,370.014526 
	C1003.181030,375.482208 1003.191895,380.949951 1003.191895,386.772461 
	C1001.314392,386.860565 999.736694,386.934631 997.840210,387.023621 
	C997.840210,374.659668 997.840210,362.585388 997.840210,350.025940 
	C999.034058,349.911896 1000.394348,349.781982 1001.917664,349.636505 
	C1002.319885,351.767487 1002.654968,353.542664 1003.090271,355.848877 
	C1003.968262,354.866699 1004.557068,354.207947 1005.402954,353.295349 
z"/>
<path fill="#292F52" opacity="1.000000" stroke="none" 
	d="
M461.069336,386.921509 
	C460.393402,380.749878 460.082336,374.670319 459.971375,368.587128 
	C459.859650,362.460480 459.946808,356.330200 459.946808,349.820099 
	C461.800110,349.729919 463.389008,349.652649 465.352722,349.557098 
	C465.352722,362.067596 465.352722,374.250061 465.352722,386.745667 
	C464.062653,386.835358 462.792328,386.923676 461.069336,386.921509 
z"/>
<path fill="#585B6A" opacity="1.000000" stroke="none" 
	d="
M1105.010254,283.633789 
	C1104.084961,283.784088 1103.036377,283.767212 1102.185303,283.348724 
	C1095.734009,280.176147 1089.271362,280.370300 1082.361084,283.044800 
	C1084.806641,279.747467 1087.837158,278.953156 1096.174316,279.542419 
	C1097.183472,279.680634 1097.578369,279.705139 1097.973267,279.729675 
	C1100.308350,280.913300 1102.643311,282.096954 1105.010254,283.633789 
z"/>
<path fill="#1C2347" opacity="1.000000" stroke="none" 
	d="
M464.496033,336.262268 
	C465.256195,337.342712 466.168640,338.423157 465.924347,339.059509 
	C465.358154,340.534241 464.445190,342.085266 463.217468,342.981873 
	C462.793182,343.291718 460.050659,341.747040 460.058136,341.068054 
	C460.076721,339.376801 460.953735,337.638184 461.761993,336.059875 
	C461.925415,335.740753 463.304321,336.044128 464.496033,336.262268 
z"/>
<path fill="#585B6A" opacity="1.000000" stroke="none" 
	d="
M1096.326294,322.915588 
	C1097.527344,322.094818 1099.173950,321.251221 1100.651489,320.175507 
	C1103.638306,318.000885 1106.533447,315.700195 1109.755249,313.729492 
	C1107.267822,319.478241 1102.544434,321.988617 1096.326294,322.915588 
z"/>
<path fill="#585B6A" opacity="1.000000" stroke="none" 
	d="
M1070.277832,297.914490 
	C1070.827515,298.277863 1071.694580,298.983795 1071.888916,299.842010 
	C1072.744263,303.618103 1073.405396,307.438141 1074.062866,311.639465 
	C1070.601196,309.179840 1069.823608,306.300995 1070.277832,297.914490 
z"/>
<path fill="#585B6A" opacity="1.000000" stroke="none" 
	d="
M1077.623657,316.731476 
	C1081.134766,318.512329 1084.291016,320.578613 1087.222046,322.876648 
	C1083.754150,321.077881 1080.511475,319.047394 1077.623657,316.731476 
z"/>
<path fill="#585B6A" opacity="1.000000" stroke="none" 
	d="
M1110.359253,313.955383 
	C1111.106567,310.926727 1112.199707,307.808136 1113.521729,304.487061 
	C1112.735352,307.478210 1111.720215,310.671844 1110.359253,313.955383 
z"/>
<path fill="#F6F7F9" opacity="1.000000" stroke="none" 
	d="
M1001.160217,277.112518 
	C997.755371,277.387726 993.851135,277.606781 989.509644,277.694946 
	C992.935181,277.394775 996.798035,277.225555 1001.160217,277.112518 
z"/>
<path fill="#585B6A" opacity="1.000000" stroke="none" 
	d="
M1073.658081,312.346710 
	C1075.047974,313.133881 1076.134155,314.263641 1077.388916,315.705872 
	C1076.156494,314.908661 1074.755493,313.798981 1073.658081,312.346710 
z"/>
<path fill="#585B6A" opacity="1.000000" stroke="none" 
	d="
M1089.876221,323.728363 
	C1091.442749,323.608734 1093.378784,323.442261 1095.690063,323.122711 
	C1094.125366,323.206940 1092.185547,323.444244 1089.876221,323.728363 
z"/>
<path fill="#585B6A" opacity="1.000000" stroke="none" 
	d="
M1107.342041,285.979919 
	C1106.580444,285.555695 1105.538940,284.979095 1104.757324,284.182922 
	C1105.698730,284.584717 1106.380615,285.206116 1107.342041,285.979919 
z"/>
<path fill="#585B6A" opacity="1.000000" stroke="none" 
	d="
M1114.272217,303.408966 
	C1114.222168,302.426880 1114.260620,301.175629 1114.180664,299.561401 
	C1114.161865,300.512207 1114.261230,301.825989 1114.272217,303.408966 
z"/>
<path fill="#585B6A" opacity="1.000000" stroke="none" 
	d="
M1081.710693,282.640137 
	C1081.213989,283.684967 1080.429077,284.408722 1079.302490,285.063507 
	C1079.781494,284.102753 1080.602051,283.210907 1081.710693,282.640137 
z"/>
<path fill="#E5E7F3" opacity="1.000000" stroke="none" 
	d="
M1279.721924,441.437134 
	C1278.911987,441.758728 1277.853638,441.889282 1276.399902,441.919647 
	C1277.160767,441.628326 1278.317017,441.437195 1279.721924,441.437134 
z"/>
<path fill="#F6F7F9" opacity="1.000000" stroke="none" 
	d="
M1059.625854,281.971741 
	C1059.758057,281.472107 1060.165283,280.928406 1060.818359,280.298950 
	C1060.676392,280.784698 1060.288574,281.356201 1059.625854,281.971741 
z"/>
<path fill="#585B6A" opacity="1.000000" stroke="none" 
	d="
M1078.732178,284.689545 
	C1078.499634,285.529266 1077.993530,286.097504 1077.216675,286.329224 
	C1077.450195,285.467834 1077.954468,284.942932 1078.732178,284.689545 
z"/>
<path fill="#E5E7F3" opacity="1.000000" stroke="none" 
	d="
M1267.844116,441.617004 
	C1267.551025,441.882446 1267.104614,441.947388 1266.330322,441.915466 
	C1266.565186,441.684601 1267.128052,441.550568 1267.844116,441.617004 
z"/>
<path fill="#585B6A" opacity="1.000000" stroke="none" 
	d="
M1076.630615,286.067993 
	C1076.926636,286.599152 1076.859619,287.251862 1076.377197,287.959656 
	C1076.063721,287.406342 1076.165649,286.797913 1076.630615,286.067993 
z"/>
<path fill="#F6F7F9" opacity="1.000000" stroke="none" 
	d="
M1049.455566,290.973969 
	C1049.542480,290.606995 1049.931519,290.208221 1050.605957,289.753052 
	C1050.513428,290.111847 1050.135620,290.527008 1049.455566,290.973969 
z"/>
<path fill="#F6F7F9" opacity="1.000000" stroke="none" 
	d="
M1015.304382,274.180542 
	C1015.047668,274.542969 1014.410278,274.849945 1013.407959,275.146423 
	C1013.669922,274.799011 1014.296753,274.462067 1015.304382,274.180542 
z"/>
<path fill="#F6F7F9" opacity="1.000000" stroke="none" 
	d="
M1068.207153,271.826416 
	C1068.084717,271.618439 1068.216309,271.253021 1068.599365,270.728455 
	C1068.720947,270.935852 1068.591064,271.302399 1068.207153,271.826416 
z"/>
<path fill="#F6F7F9" opacity="1.000000" stroke="none" 
	d="
M1022.255005,271.198456 
	C1022.255493,271.450684 1021.945190,271.716309 1021.318726,271.978058 
	C1021.316406,271.720093 1021.630310,271.465973 1022.255005,271.198456 
z"/>
<path fill="#F6F7F9" opacity="1.000000" stroke="none" 
	d="
M984.920654,276.852600 
	C984.831482,277.089081 984.661560,277.151947 984.246338,277.098022 
	C984.280579,276.880463 984.560242,276.779755 984.920654,276.852600 
z"/>
<path fill="#F6F7F9" opacity="1.000000" stroke="none" 
	d="
M1038.923096,297.842926 
	C1038.909058,297.611145 1039.166138,297.352814 1039.706543,297.101562 
	C1039.724609,297.344513 1039.459351,297.580414 1038.923096,297.842926 
z"/>
<path fill="#F6F7F9" opacity="1.000000" stroke="none" 
	d="
M1040.899292,296.812622 
	C1040.872925,296.589996 1041.138184,296.322571 1041.689209,295.990479 
	C1041.713745,296.206451 1041.452393,296.487152 1040.899292,296.812622 
z"/>
<path fill="#585B6A" opacity="1.000000" stroke="none" 
	d="
M1075.637939,287.807434 
	C1075.751343,288.316650 1075.484375,288.673828 1074.831543,289.034637 
	C1074.716431,288.577301 1074.986938,288.116302 1075.637939,287.807434 
z"/>
<path fill="#F6F7F9" opacity="1.000000" stroke="none" 
	d="
M1097.746826,279.538940 
	C1097.578369,279.705139 1097.183472,279.680634 1096.571533,279.445129 
	C1096.743042,279.272186 1097.131836,279.310211 1097.746826,279.538940 
z"/>
<path fill="#FDFEFE" opacity="1.000000" stroke="none" 
	d="
M505.179535,261.182373 
	C482.340179,285.162018 442.314789,283.961517 419.863037,260.435394 
	C396.974091,236.451202 397.125122,199.346191 420.716187,175.987167 
	C444.649017,152.289795 481.682251,152.249390 505.489410,175.894653 
	C529.325378,199.568527 529.300659,236.216919 505.179535,261.182373 
z"/>
<path fill="#FCFDFD" opacity="1.000000" stroke="none" 
	d="
M1035.997314,203.106537 
	C1002.559204,203.108215 969.620667,203.108215 936.623718,203.108215 
	C940.686279,179.819855 965.506775,159.250687 990.773499,157.941299 
	C1019.497803,156.452728 1044.818970,174.550751 1052.879150,203.104843 
	C1047.257812,203.104843 1041.877319,203.104843 1035.997314,203.106537 
z"/>
<path fill="#FDFEFE" opacity="1.000000" stroke="none" 
	d="
M228.015121,168.954926 
	C262.294678,145.005905 312.765472,162.662354 321.376434,206.176941 
	C328.145844,240.385620 305.764526,272.146667 271.700470,277.586212 
	C240.477997,282.572021 209.233994,261.630981 203.545181,230.641998 
	C198.953033,205.626984 207.111710,184.717941 228.015121,168.954926 
z"/>
<path fill="#FDFEFE" opacity="1.000000" stroke="none" 
	d="
M688.521362,163.382187 
	C705.784546,171.910187 717.320496,185.046860 721.944275,203.331406 
	C732.554932,245.290741 698.012085,278.529541 665.848572,278.068329 
	C637.295349,277.658844 616.541077,264.641083 606.934204,238.240311 
	C599.610291,218.113403 602.762695,198.699768 616.020447,181.667709 
	C626.818054,167.796310 641.007935,159.301849 658.961304,158.281464 
	C669.038635,157.708710 678.898193,158.889664 688.521362,163.382187 
z"/>
<path fill="#373A51" opacity="1.000000" stroke="none" 
	d="
M1103.712036,294.099670 
	C1101.965698,294.005341 1100.568115,293.694550 1099.347778,294.029572 
	C1098.428711,294.281891 1097.271729,295.252045 1097.070801,296.103424 
	C1096.856812,297.009644 1097.350708,298.481567 1098.062256,299.114502 
	C1099.131348,300.065430 1100.622070,300.595123 1101.999268,301.136169 
	C1105.017944,302.322052 1107.506470,304.095764 1106.834351,307.679352 
	C1106.128296,311.443268 1103.004150,312.469147 1099.624634,312.396729 
	C1097.704590,312.355591 1095.796387,311.762207 1093.882935,311.417542 
	C1093.936768,311.003601 1093.990601,310.589630 1094.044434,310.175690 
	C1096.161011,310.175690 1098.344604,310.493195 1100.370850,310.065430 
	C1101.748291,309.774628 1103.694458,308.612885 1103.934448,307.521515 
	C1104.165039,306.472534 1102.723633,304.802338 1101.649780,303.797852 
	C1100.733643,302.940948 1098.883667,302.957703 1098.173340,302.031097 
	C1096.626709,300.013458 1094.415894,297.516815 1094.642822,295.454315 
	C1094.810791,293.929321 1098.279785,292.483246 1100.512451,291.583649 
	C1101.721191,291.096619 1103.420654,291.827972 1104.898804,292.009705 
	C1104.644897,292.726746 1104.390991,293.443726 1103.712036,294.099670 
z"/>
<path fill="#373A51" opacity="1.000000" stroke="none" 
	d="
M1085.809814,302.969421 
	C1085.808594,306.334229 1085.808594,309.213745 1085.808594,312.093231 
	C1085.035278,312.096863 1084.261963,312.100464 1083.488647,312.104065 
	C1083.488647,306.202515 1083.488647,300.300964 1083.488647,294.337585 
	C1080.799683,294.043884 1078.926636,293.839294 1077.053589,293.634705 
	C1077.052368,293.258362 1077.051025,292.882050 1077.049805,292.505707 
	C1082.025391,292.505707 1087.000854,292.505707 1091.976440,292.505707 
	C1092.047241,292.846619 1092.117920,293.187561 1092.188721,293.528473 
	C1090.290894,293.763702 1088.393188,293.998932 1085.811157,294.318939 
	C1085.811157,296.969971 1085.811157,299.727051 1085.809814,302.969421 
z"/>
<path fill="#F6F7F9" opacity="1.000000" stroke="none" 
	d="
M601.125244,363.542786 
	C607.430603,365.286133 609.872742,367.967896 609.722290,372.627777 
	C609.556885,377.754211 606.366211,381.192596 600.411316,381.788940 
	C596.170227,382.213654 591.852356,381.871338 587.342590,381.871338 
	C587.342590,375.666656 587.342590,369.757111 587.342590,363.443756 
	C591.865845,363.443756 596.288391,363.443756 601.125244,363.542786 
z"/>
<path fill="#F6F7F9" opacity="1.000000" stroke="none" 
	d="
M602.204529,357.879303 
	C597.136353,357.957642 592.496643,357.957642 587.480957,357.957642 
	C587.480957,353.003448 587.480957,347.937225 587.480957,341.700378 
	C592.805786,342.221497 598.396851,342.296692 603.709839,343.550476 
	C605.514099,343.976257 607.373291,347.206024 607.874390,349.451935 
	C608.772827,353.478668 606.792847,356.525665 602.204529,357.879303 
z"/>
<path fill="#F6F7F9" opacity="1.000000" stroke="none" 
	d="
M808.095093,361.050873 
	C806.445374,360.194489 804.303406,359.398560 804.245544,358.472504 
	C803.916992,353.210083 804.086365,347.916534 804.086365,341.864563 
	C808.599731,342.208801 812.712891,342.222839 816.712830,342.902588 
	C821.836853,343.773346 824.166931,347.027710 823.892639,351.974243 
	C823.621765,356.856781 820.775513,360.199036 816.033142,360.811340 
	C813.574524,361.128754 811.056519,360.986053 808.095093,361.050873 
z"/>
<path fill="#F8F9FA" opacity="1.000000" stroke="none" 
	d="
M757.692993,380.808838 
	C748.004822,385.292999 741.590454,381.715607 740.723145,371.559509 
	C740.471130,368.608124 740.582397,365.560272 741.017700,362.629486 
	C741.882751,356.804413 745.711548,353.575989 751.119141,353.668335 
	C756.997864,353.768768 760.028503,356.458466 761.042297,362.669586 
	C762.070679,368.970032 762.699951,375.241119 757.692993,380.808838 
z"/>
<path fill="#F0F2F5" opacity="1.000000" stroke="none" 
	d="
M196.321411,349.696899 
	C198.320969,355.136383 200.176117,360.219452 202.158585,365.651306 
	C196.853119,365.651306 192.096497,365.651306 186.575775,365.651306 
	C187.804169,362.064270 188.899490,358.713074 190.100800,355.400330 
	C191.331955,352.005280 192.666855,348.647858 194.274017,344.442902 
	C195.098038,346.563629 195.637527,347.952026 196.321411,349.696899 
z"/>
<path fill="#F6F7F9" opacity="1.000000" stroke="none" 
	d="
M411.707550,382.011475 
	C410.688202,382.284119 410.055298,382.519012 409.402435,382.608917 
	C403.791473,383.381683 400.637848,381.826752 399.899384,377.955170 
	C399.029694,373.395691 401.416992,370.336243 407.197784,369.295898 
	C410.561523,368.690552 414.039368,368.719208 417.619598,368.451080 
	C418.667542,374.506317 417.354401,379.030945 411.707550,382.011475 
z"/>
<path fill="#F6F7F9" opacity="1.000000" stroke="none" 
	d="
M636.706848,369.150452 
	C640.248901,368.893738 643.357666,368.707153 646.420410,368.523346 
	C648.117981,377.370697 644.033142,382.854919 636.053772,382.818756 
	C632.626160,382.803223 629.689331,381.847748 629.073181,377.969330 
	C628.454041,374.072083 629.794006,371.127869 633.914001,369.977509 
	C634.708984,369.755524 635.487488,369.474426 636.706848,369.150452 
z"/>
<path fill="#F0F2F5" opacity="1.000000" stroke="none" 
	d="
M1080.793701,357.308716 
	C1081.680908,359.779236 1082.376587,361.909119 1083.233276,364.532318 
	C1076.192627,364.532318 1069.960327,364.532318 1063.471680,364.532318 
	C1063.434204,359.902374 1065.231323,356.262909 1069.345825,354.474915 
	C1073.435669,352.697571 1077.498779,353.213562 1080.793701,357.308716 
z"/>
<path fill="#F0F2F5" opacity="1.000000" stroke="none" 
	d="
M856.878235,364.824951 
	C852.617615,364.826569 848.834900,364.826569 845.054749,364.826569 
	C845.178406,357.643951 848.813293,353.626648 854.748657,353.636200 
	C860.634949,353.645660 863.749207,357.342407 863.645874,364.823334 
	C861.560608,364.823334 859.458313,364.823334 856.878235,364.824951 
z"/>
<path fill="#F8F9FA" opacity="1.000000" stroke="none" 
	d="
M482.401489,360.800140 
	C484.563721,355.128662 488.609070,353.332397 493.971313,353.818848 
	C499.123138,354.286163 502.417389,357.265991 502.992218,362.166321 
	C503.517029,366.640198 503.500580,371.388123 502.563232,375.767090 
	C501.504944,380.710846 497.129822,383.047150 491.927063,382.766205 
	C486.907715,382.495148 482.935577,379.536316 482.262787,374.447632 
	C481.687714,370.098419 482.216248,365.603241 482.401489,360.800140 
z"/>
<path fill="#F0F2F5" opacity="1.000000" stroke="none" 
	d="
M718.008606,355.827576 
	C719.402588,358.706543 720.504822,361.312897 721.879211,364.562897 
	C714.499329,364.562897 708.308411,364.562897 702.113525,364.562897 
	C702.251221,355.122498 709.499329,351.044403 718.008606,355.827576 
z"/>
<path fill="#F8F9FA" opacity="1.000000" stroke="none" 
	d="
M293.504700,365.551880 
	C295.064667,357.282562 297.649048,354.265533 303.305573,353.776489 
	C309.721527,353.221771 314.014954,356.080414 315.125580,362.480072 
	C315.762909,366.152618 315.760345,370.105286 315.156433,373.785889 
	C314.166656,379.817993 310.545197,382.663635 304.996765,382.775970 
	C299.294525,382.891388 295.348816,379.818146 294.098419,373.879944 
	C293.556671,371.307098 293.642731,368.601990 293.504700,365.551880 
z"/>
<path fill="#F8F9FA" opacity="1.000000" stroke="none" 
	d="
M916.968140,372.461487 
	C917.022583,368.716614 916.727966,365.336700 917.312073,362.116119 
	C918.300476,356.666565 922.093872,353.806580 927.490417,353.729675 
	C933.073669,353.650085 936.730591,356.129333 938.063049,361.570251 
	C938.800293,364.580627 939.058838,367.814484 938.902832,370.915924 
	C938.545410,378.021606 934.943298,382.122589 929.086670,382.713837 
	C922.701111,383.358459 919.031494,380.374756 916.968140,372.461487 
z"/>
</svg>